<svg width="1920" height="2658" viewBox="0 0 1920 2658" fill="none" xmlns="http://www.w3.org/2000/svg">
<rect y="1111" width="1920" height="338" fill="#F16A22"/>
<g opacity="0.2">
<path d="M763.316 968.742C1011.17 979.621 793.826 1198.05 983.22 1324.75C1156.79 1440.86 1457.02 1181.69 1497.34 1547.44C1524.94 1797.85 1605.76 1890.86 1811.09 1944.57" stroke="#F2F2F2" stroke-width="1.75246"/>
<path d="M774.54 955.283C1022.39 966.162 805.05 1184.59 994.443 1311.29C1168.01 1427.4 1468.25 1168.24 1508.56 1533.98C1536.16 1784.39 1616.99 1877.4 1822.31 1931.11" stroke="#F2F2F2" stroke-width="1.75246"/>
<path d="M785.763 941.824C1033.62 952.703 816.273 1171.13 1005.67 1297.83C1179.24 1413.94 1479.47 1154.78 1519.79 1520.52C1547.39 1770.93 1628.21 1863.94 1833.53 1917.65" stroke="#F2F2F2" stroke-width="1.75246"/>
<path d="M796.987 928.365C1044.84 939.244 827.497 1157.68 1016.89 1284.37C1190.46 1400.48 1490.7 1141.32 1531.01 1507.06C1558.61 1757.47 1639.43 1850.49 1844.76 1904.2" stroke="#F2F2F2" stroke-width="1.75246"/>
<path d="M808.21 914.906C1056.06 925.785 838.72 1144.22 1028.11 1270.91C1201.68 1387.02 1501.92 1127.86 1542.23 1493.6C1569.83 1744.01 1650.66 1837.03 1855.98 1890.74" stroke="#F2F2F2" stroke-width="1.75246"/>
<path d="M819.434 901.447C1067.29 912.326 849.944 1130.76 1039.34 1257.45C1212.91 1373.57 1513.14 1114.4 1553.46 1480.14C1581.06 1730.55 1661.88 1823.57 1867.2 1877.28" stroke="#F2F2F2" stroke-width="1.75246"/>
<path d="M830.657 887.988C1078.51 898.867 861.167 1117.3 1050.56 1244C1224.13 1360.11 1524.37 1100.94 1564.68 1466.69C1592.28 1717.09 1673.1 1810.11 1878.43 1863.82" stroke="#F2F2F2" stroke-width="1.75246"/>
<path d="M841.881 874.529C1089.73 885.408 872.391 1103.84 1061.78 1230.54C1235.35 1346.65 1535.59 1087.48 1575.9 1453.23C1603.5 1703.63 1684.33 1796.65 1889.65 1850.36" stroke="#F2F2F2" stroke-width="1.75246"/>
<path d="M853.104 861.07C1100.96 871.949 883.614 1090.38 1073.01 1217.08C1246.58 1333.19 1546.81 1074.02 1587.13 1439.77C1614.73 1690.17 1695.55 1783.19 1900.87 1836.9" stroke="#F2F2F2" stroke-width="1.75246"/>
<path d="M864.328 847.611C1112.18 858.49 894.838 1076.92 1084.23 1203.62C1257.8 1319.73 1558.04 1060.56 1598.35 1426.31C1625.95 1676.71 1706.77 1769.73 1912.1 1823.44" stroke="#F2F2F2" stroke-width="1.75246"/>
<path d="M875.551 834.152C1123.4 845.031 906.061 1063.46 1095.46 1190.16C1269.02 1306.27 1569.26 1047.1 1609.57 1412.85C1637.17 1663.26 1718 1756.27 1923.32 1809.98" stroke="#F2F2F2" stroke-width="1.75246"/>
<path d="M886.775 820.693C1134.63 831.572 917.285 1050 1106.68 1176.7C1280.25 1292.81 1580.48 1033.65 1620.8 1399.39C1648.4 1649.8 1729.22 1742.81 1934.54 1796.52" stroke="#F2F2F2" stroke-width="1.75246"/>
<path d="M897.999 807.234C1145.85 818.113 928.509 1036.54 1117.9 1163.24C1291.47 1279.35 1591.71 1020.19 1632.02 1385.93C1659.62 1636.34 1740.44 1729.35 1945.77 1783.06" stroke="#F2F2F2" stroke-width="1.75246"/>
<path d="M909.222 793.775C1157.07 804.654 939.732 1023.09 1129.13 1149.78C1302.69 1265.89 1602.93 1006.73 1643.24 1372.47C1670.84 1622.88 1751.67 1715.9 1956.99 1769.6" stroke="#F2F2F2" stroke-width="1.75246"/>
<path d="M920.446 780.316C1168.3 791.195 950.956 1009.63 1140.35 1136.32C1313.92 1252.43 1614.15 993.268 1654.47 1359.01C1682.07 1609.42 1762.89 1702.44 1968.22 1756.15" stroke="#F2F2F2" stroke-width="1.75246"/>
<path d="M931.669 766.857C1179.52 777.736 962.179 996.167 1151.57 1122.86C1325.14 1238.98 1625.38 979.809 1665.69 1345.55C1693.29 1595.96 1774.11 1688.98 1979.44 1742.69" stroke="#F2F2F2" stroke-width="1.75246"/>
<path d="M942.893 753.398C1190.75 764.277 973.403 982.708 1162.8 1109.41C1336.37 1225.52 1636.6 966.35 1676.91 1332.1C1704.52 1582.5 1785.34 1675.52 1990.66 1729.23" stroke="#F2F2F2" stroke-width="1.75246"/>
<path d="M954.116 739.939C1201.97 750.818 984.626 969.249 1174.02 1095.95C1347.59 1212.06 1647.82 952.891 1688.14 1318.64C1715.74 1569.04 1796.56 1662.06 2001.89 1715.77" stroke="#F2F2F2" stroke-width="1.75246"/>
<path d="M965.34 726.479C1213.19 737.359 995.85 955.79 1185.24 1082.49C1358.81 1198.6 1659.05 939.432 1699.36 1305.18C1726.96 1555.58 1807.79 1648.6 2013.11 1702.31" stroke="#F2F2F2" stroke-width="1.75246"/>
<path d="M976.563 713.021C1224.42 723.9 1007.07 942.331 1196.47 1069.03C1370.04 1185.14 1670.27 925.973 1710.59 1291.72C1738.19 1542.12 1819.01 1635.14 2024.33 1688.85" stroke="#F2F2F2" stroke-width="1.75246"/>
</g>
</svg>
