<svg width="1915" height="244" viewBox="0 0 1915 244" fill="none" xmlns="http://www.w3.org/2000/svg">
<path d="M73.1264 93.0594V96.5094H79.8764V100.979H73.1264V104.789H80.7764V109.499H67.2464V88.3494H80.7764V93.0594H73.1264ZM90.852 109.709C89.332 109.709 87.972 109.459 86.772 108.959C85.592 108.439 84.652 107.739 83.952 106.859C83.272 105.959 82.892 104.949 82.812 103.829H88.512C88.592 104.369 88.842 104.789 89.262 105.089C89.682 105.389 90.202 105.539 90.822 105.539C91.302 105.539 91.682 105.439 91.962 105.239C92.242 105.039 92.382 104.779 92.382 104.459C92.382 104.039 92.152 103.729 91.692 103.529C91.232 103.329 90.472 103.109 89.412 102.869C88.212 102.629 87.212 102.359 86.412 102.059C85.612 101.759 84.912 101.269 84.312 100.589C83.732 99.9094 83.442 98.9894 83.442 97.8294C83.442 96.8294 83.712 95.9294 84.252 95.1294C84.792 94.3094 85.582 93.6594 86.622 93.1794C87.682 92.6994 88.952 92.4594 90.432 92.4594C92.632 92.4594 94.362 92.9994 95.622 94.0794C96.882 95.1594 97.612 96.5794 97.812 98.3394H92.502C92.402 97.7994 92.162 97.3894 91.782 97.1094C91.422 96.8094 90.932 96.6594 90.312 96.6594C89.832 96.6594 89.462 96.7494 89.202 96.9294C88.962 97.1094 88.842 97.3594 88.842 97.6794C88.842 98.0794 89.072 98.3894 89.532 98.6094C89.992 98.8094 90.732 99.0194 91.752 99.2394C92.972 99.4994 93.982 99.7894 94.782 100.109C95.602 100.429 96.312 100.949 96.912 101.669C97.532 102.369 97.842 103.329 97.842 104.549C97.842 105.529 97.552 106.409 96.972 107.189C96.412 107.969 95.602 108.589 94.542 109.049C93.502 109.489 92.272 109.709 90.852 109.709ZM110.663 104.489V109.499H108.113C103.813 109.499 101.663 107.369 101.663 103.109V97.5594H99.5927V92.6694H101.663V88.5894H107.573V92.6694H110.633V97.5594H107.573V103.199C107.573 103.659 107.673 103.989 107.873 104.189C108.093 104.389 108.453 104.489 108.953 104.489H110.663ZM116.33 91.1094C115.29 91.1094 114.45 90.8294 113.81 90.2694C113.19 89.6894 112.88 88.9694 112.88 88.1094C112.88 87.2294 113.19 86.4994 113.81 85.9194C114.45 85.3394 115.29 85.0494 116.33 85.0494C117.35 85.0494 118.17 85.3394 118.79 85.9194C119.43 86.4994 119.75 87.2294 119.75 88.1094C119.75 88.9694 119.43 89.6894 118.79 90.2694C118.17 90.8294 117.35 91.1094 116.33 91.1094ZM119.24 92.6694V109.499H113.36V92.6694H119.24ZM144.578 92.5194C146.698 92.5194 148.358 93.1594 149.558 94.4394C150.778 95.7194 151.388 97.4694 151.388 99.6894V109.499H145.508V100.469C145.508 99.5694 145.258 98.8694 144.758 98.3694C144.258 97.8694 143.578 97.6194 142.718 97.6194C141.858 97.6194 141.178 97.8694 140.678 98.3694C140.178 98.8694 139.928 99.5694 139.928 100.469V109.499H134.048V100.469C134.048 99.5694 133.798 98.8694 133.298 98.3694C132.818 97.8694 132.148 97.6194 131.288 97.6194C130.408 97.6194 129.718 97.8694 129.218 98.3694C128.718 98.8694 128.468 99.5694 128.468 100.469V109.499H122.588V92.6694H128.468V94.8894C128.988 94.1694 129.658 93.5994 130.478 93.1794C131.318 92.7394 132.278 92.5194 133.358 92.5194C134.598 92.5194 135.698 92.7894 136.658 93.3294C137.638 93.8694 138.408 94.6294 138.968 95.6094C139.568 94.6894 140.358 93.9494 141.338 93.3894C142.318 92.8094 143.398 92.5194 144.578 92.5194ZM153.65 101.069C153.65 99.3294 153.96 97.8094 154.58 96.5094C155.22 95.2094 156.08 94.2094 157.16 93.5094C158.26 92.8094 159.48 92.4594 160.82 92.4594C161.98 92.4594 162.98 92.6894 163.82 93.1494C164.66 93.6094 165.31 94.2294 165.77 95.0094V92.6694H171.65V109.499H165.77V107.159C165.31 107.939 164.65 108.559 163.79 109.019C162.95 109.479 161.96 109.709 160.82 109.709C159.48 109.709 158.26 109.359 157.16 108.659C156.08 107.959 155.22 106.959 154.58 105.659C153.96 104.339 153.65 102.809 153.65 101.069ZM165.77 101.069C165.77 99.9894 165.47 99.1394 164.87 98.5194C164.29 97.8994 163.57 97.5894 162.71 97.5894C161.83 97.5894 161.1 97.8994 160.52 98.5194C159.94 99.1194 159.65 99.9694 159.65 101.069C159.65 102.149 159.94 103.009 160.52 103.649C161.1 104.269 161.83 104.579 162.71 104.579C163.57 104.579 164.29 104.269 164.87 103.649C165.47 103.029 165.77 102.169 165.77 101.069ZM184.93 104.489V109.499H182.38C178.08 109.499 175.93 107.369 175.93 103.109V97.5594H173.86V92.6694H175.93V88.5894H181.84V92.6694H184.9V97.5594H181.84V103.199C181.84 103.659 181.94 103.989 182.14 104.189C182.36 104.389 182.72 104.489 183.22 104.489H184.93ZM203.707 100.889C203.707 101.349 203.677 101.809 203.617 102.269H192.487C192.547 103.189 192.797 103.879 193.237 104.339C193.697 104.779 194.277 104.999 194.977 104.999C195.957 104.999 196.657 104.559 197.077 103.679H203.347C203.087 104.839 202.577 105.879 201.817 106.799C201.077 107.699 200.137 108.409 198.997 108.929C197.857 109.449 196.597 109.709 195.217 109.709C193.557 109.709 192.077 109.359 190.777 108.659C189.497 107.959 188.487 106.959 187.747 105.659C187.027 104.359 186.667 102.829 186.667 101.069C186.667 99.3094 187.027 97.7894 187.747 96.5094C188.467 95.2094 189.467 94.2094 190.747 93.5094C192.047 92.8094 193.537 92.4594 195.217 92.4594C196.877 92.4594 198.347 92.7994 199.627 93.4794C200.907 94.1594 201.907 95.1394 202.627 96.4194C203.347 97.6794 203.707 99.1694 203.707 100.889ZM197.707 99.4194C197.707 98.6994 197.467 98.1394 196.987 97.7394C196.507 97.3194 195.907 97.1094 195.187 97.1094C194.467 97.1094 193.877 97.3094 193.417 97.7094C192.957 98.0894 192.657 98.6594 192.517 99.4194H197.707ZM83.1217 136.109C82.0817 136.109 81.2417 135.829 80.6017 135.269C79.9817 134.689 79.6717 133.969 79.6717 133.109C79.6717 132.229 79.9817 131.499 80.6017 130.919C81.2417 130.339 82.0817 130.049 83.1217 130.049C84.1417 130.049 84.9617 130.339 85.5817 130.919C86.2217 131.499 86.5417 132.229 86.5417 133.109C86.5417 133.969 86.2217 134.689 85.5817 135.269C84.9617 135.829 84.1417 136.109 83.1217 136.109ZM86.0317 137.669V154.499H80.1517V137.669H86.0317ZM100.39 137.519C102.33 137.519 103.87 138.169 105.01 139.469C106.15 140.749 106.72 142.489 106.72 144.689V154.499H100.84V145.469C100.84 144.509 100.59 143.759 100.09 143.219C99.5902 142.659 98.9202 142.379 98.0802 142.379C97.2002 142.379 96.5102 142.659 96.0102 143.219C95.5102 143.759 95.2602 144.509 95.2602 145.469V154.499H89.3802V137.669H95.2602V140.069C95.7802 139.309 96.4802 138.699 97.3602 138.239C98.2402 137.759 99.2502 137.519 100.39 137.519ZM108.987 146.159C108.987 144.499 109.327 143.019 110.007 141.719C110.707 140.399 111.627 139.369 112.767 138.629C113.927 137.889 115.187 137.519 116.547 137.519C118.507 137.519 120.027 138.139 121.107 139.379V137.669H126.987V162.539H121.107V152.519C119.867 153.979 118.337 154.709 116.517 154.709C115.157 154.709 113.897 154.349 112.737 153.629C111.597 152.909 110.687 151.899 110.007 150.599C109.327 149.299 108.987 147.819 108.987 146.159ZM121.107 146.069C121.107 144.949 120.787 144.099 120.147 143.519C119.527 142.919 118.827 142.619 118.047 142.619C117.267 142.619 116.557 142.929 115.917 143.549C115.297 144.149 114.987 145.019 114.987 146.159C114.987 147.299 115.297 148.159 115.917 148.739C116.537 149.299 117.247 149.579 118.047 149.579C118.827 149.579 119.527 149.279 120.147 148.679C120.787 148.079 121.107 147.209 121.107 146.069ZM147.557 137.669V154.499H141.647V152.099C141.147 152.859 140.457 153.479 139.577 153.959C138.697 154.419 137.687 154.649 136.547 154.649C134.587 154.649 133.037 154.009 131.897 152.729C130.777 151.429 130.217 149.669 130.217 147.449V137.669H136.067V146.699C136.067 147.659 136.317 148.419 136.817 148.979C137.337 149.519 138.017 149.789 138.857 149.789C139.717 149.789 140.397 149.519 140.897 148.979C141.397 148.419 141.647 147.659 141.647 146.699V137.669H147.557ZM153.874 136.109C152.834 136.109 151.994 135.829 151.354 135.269C150.734 134.689 150.424 133.969 150.424 133.109C150.424 132.229 150.734 131.499 151.354 130.919C151.994 130.339 152.834 130.049 153.874 130.049C154.894 130.049 155.714 130.339 156.334 130.919C156.974 131.499 157.294 132.229 157.294 133.109C157.294 133.969 156.974 134.689 156.334 135.269C155.714 135.829 154.894 136.109 153.874 136.109ZM156.784 137.669V154.499H150.904V137.669H156.784ZM166.012 140.639C166.672 139.679 167.472 138.919 168.412 138.359C169.352 137.799 170.362 137.519 171.442 137.519V143.789H169.792C168.512 143.789 167.562 144.039 166.942 144.539C166.322 145.039 166.012 145.909 166.012 147.149V154.499H160.132V137.669H166.012V140.639ZM191.67 137.669L180.99 162.509H174.6L178.62 153.779L171.72 137.669H178.26L181.8 147.209L185.22 137.669H191.67Z" fill="#333333"/>
<line x1="284.5" y1="242.999" x2="284.5" y2="-0.000610334" stroke="#999999" stroke-dasharray="2 2"/>
<path d="M366.083 98.6394C367.323 98.9194 368.303 99.5394 369.023 100.499C369.763 101.439 370.133 102.519 370.133 103.739C370.133 105.539 369.513 106.949 368.273 107.969C367.033 108.989 365.293 109.499 363.053 109.499H352.583V88.3494H362.723C364.883 88.3494 366.573 88.8294 367.793 89.7894C369.033 90.7494 369.653 92.0994 369.653 93.8394C369.653 95.0794 369.323 96.1194 368.663 96.9594C368.023 97.7794 367.163 98.3394 366.083 98.6394ZM358.463 96.7494H361.433C362.913 96.7494 363.653 96.1394 363.653 94.9194C363.653 93.6594 362.913 93.0294 361.433 93.0294H358.463V96.7494ZM361.883 104.759C363.363 104.759 364.103 104.139 364.103 102.899C364.103 102.259 363.903 101.769 363.503 101.429C363.123 101.089 362.573 100.919 361.853 100.919H358.463V104.759H361.883ZM380.54 109.709C378.86 109.709 377.35 109.359 376.01 108.659C374.69 107.959 373.65 106.959 372.89 105.659C372.13 104.359 371.75 102.829 371.75 101.069C371.75 99.3294 372.13 97.8094 372.89 96.5094C373.67 95.2094 374.72 94.2094 376.04 93.5094C377.38 92.8094 378.89 92.4594 380.57 92.4594C382.25 92.4594 383.75 92.8094 385.07 93.5094C386.41 94.2094 387.46 95.2094 388.22 96.5094C389 97.8094 389.39 99.3294 389.39 101.069C389.39 102.809 389 104.339 388.22 105.659C387.46 106.959 386.41 107.959 385.07 108.659C383.73 109.359 382.22 109.709 380.54 109.709ZM380.54 104.609C381.36 104.609 382.04 104.309 382.58 103.709C383.14 103.089 383.42 102.209 383.42 101.069C383.42 99.9294 383.14 99.0594 382.58 98.4594C382.04 97.8594 381.37 97.5594 380.57 97.5594C379.77 97.5594 379.1 97.8594 378.56 98.4594C378.02 99.0594 377.75 99.9294 377.75 101.069C377.75 102.229 378.01 103.109 378.53 103.709C379.05 104.309 379.72 104.609 380.54 104.609ZM401.713 104.489V109.499H399.163C394.863 109.499 392.713 107.369 392.713 103.109V97.5594H390.643V92.6694H392.713V88.5894H398.623V92.6694H401.683V97.5594H398.623V103.199C398.623 103.659 398.723 103.989 398.923 104.189C399.143 104.389 399.503 104.489 400.003 104.489H401.713ZM415.479 92.5194C417.399 92.5194 418.919 93.1694 420.039 94.4694C421.179 95.7494 421.749 97.4894 421.749 99.6894V109.499H415.869V100.469C415.869 99.5094 415.619 98.7594 415.119 98.2194C414.619 97.6594 413.949 97.3794 413.109 97.3794C412.229 97.3794 411.539 97.6594 411.039 98.2194C410.539 98.7594 410.289 99.5094 410.289 100.469V109.499H404.409V87.2994H410.289V95.0694C410.809 94.3094 411.509 93.6994 412.389 93.2394C413.289 92.7594 414.319 92.5194 415.479 92.5194ZM436.598 95.0094C437.058 94.2294 437.708 93.6094 438.548 93.1494C439.388 92.6894 440.378 92.4594 441.518 92.4594C442.858 92.4594 444.068 92.8094 445.148 93.5094C446.248 94.2094 447.108 95.2094 447.728 96.5094C448.368 97.8094 448.688 99.3294 448.688 101.069C448.688 102.809 448.368 104.339 447.728 105.659C447.108 106.959 446.248 107.959 445.148 108.659C444.068 109.359 442.858 109.709 441.518 109.709C440.378 109.709 439.388 109.479 438.548 109.019C437.728 108.559 437.078 107.939 436.598 107.159V117.539H430.718V92.6694H436.598V95.0094ZM442.718 101.069C442.718 99.9694 442.418 99.1194 441.818 98.5194C441.238 97.8994 440.518 97.5894 439.658 97.5894C438.798 97.5894 438.068 97.8994 437.468 98.5194C436.888 99.1394 436.598 99.9894 436.598 101.069C436.598 102.169 436.888 103.029 437.468 103.649C438.068 104.269 438.798 104.579 439.658 104.579C440.518 104.579 441.238 104.269 441.818 103.649C442.418 103.009 442.718 102.149 442.718 101.069ZM456.989 95.6394C457.649 94.6794 458.449 93.9194 459.389 93.3594C460.329 92.7994 461.339 92.5194 462.419 92.5194V98.7894H460.769C459.489 98.7894 458.539 99.0394 457.919 99.5394C457.299 100.039 456.989 100.909 456.989 102.149V109.499H451.109V92.6694H456.989V95.6394ZM472.357 109.709C470.677 109.709 469.167 109.359 467.827 108.659C466.507 107.959 465.467 106.959 464.707 105.659C463.947 104.359 463.567 102.829 463.567 101.069C463.567 99.3294 463.947 97.8094 464.707 96.5094C465.487 95.2094 466.537 94.2094 467.857 93.5094C469.197 92.8094 470.707 92.4594 472.387 92.4594C474.067 92.4594 475.567 92.8094 476.887 93.5094C478.227 94.2094 479.277 95.2094 480.037 96.5094C480.817 97.8094 481.207 99.3294 481.207 101.069C481.207 102.809 480.817 104.339 480.037 105.659C479.277 106.959 478.227 107.959 476.887 108.659C475.547 109.359 474.037 109.709 472.357 109.709ZM472.357 104.609C473.177 104.609 473.857 104.309 474.397 103.709C474.957 103.089 475.237 102.209 475.237 101.069C475.237 99.9294 474.957 99.0594 474.397 98.4594C473.857 97.8594 473.187 97.5594 472.387 97.5594C471.587 97.5594 470.917 97.8594 470.377 98.4594C469.837 99.0594 469.567 99.9294 469.567 101.069C469.567 102.229 469.827 103.109 470.347 103.709C470.867 104.309 471.537 104.609 472.357 104.609ZM489.479 95.0094C489.939 94.2094 490.589 93.5894 491.429 93.1494C492.269 92.6894 493.259 92.4594 494.399 92.4594C495.739 92.4594 496.949 92.8094 498.029 93.5094C499.129 94.2094 499.989 95.2094 500.609 96.5094C501.249 97.8094 501.569 99.3294 501.569 101.069C501.569 102.809 501.249 104.339 500.609 105.659C499.989 106.959 499.129 107.959 498.029 108.659C496.949 109.359 495.739 109.709 494.399 109.709C493.259 109.709 492.269 109.489 491.429 109.049C490.589 108.589 489.939 107.959 489.479 107.159V109.499H483.599V87.2994H489.479V95.0094ZM495.599 101.069C495.599 99.9694 495.299 99.1194 494.699 98.5194C494.119 97.8994 493.399 97.5894 492.539 97.5894C491.679 97.5894 490.949 97.8994 490.349 98.5194C489.769 99.1394 489.479 99.9894 489.479 101.069C489.479 102.169 489.769 103.029 490.349 103.649C490.949 104.269 491.679 104.579 492.539 104.579C493.399 104.579 494.119 104.269 494.699 103.649C495.299 103.009 495.599 102.149 495.599 101.069ZM509.87 87.2994V109.499H503.99V87.2994H509.87ZM529.298 100.889C529.298 101.349 529.268 101.809 529.208 102.269H518.078C518.138 103.189 518.388 103.879 518.828 104.339C519.288 104.779 519.868 104.999 520.568 104.999C521.548 104.999 522.248 104.559 522.668 103.679H528.938C528.678 104.839 528.168 105.879 527.408 106.799C526.668 107.699 525.728 108.409 524.588 108.929C523.448 109.449 522.188 109.709 520.808 109.709C519.148 109.709 517.668 109.359 516.368 108.659C515.088 107.959 514.078 106.959 513.338 105.659C512.618 104.359 512.258 102.829 512.258 101.069C512.258 99.3094 512.618 97.7894 513.338 96.5094C514.058 95.2094 515.058 94.2094 516.338 93.5094C517.638 92.8094 519.128 92.4594 520.808 92.4594C522.468 92.4594 523.938 92.7994 525.218 93.4794C526.498 94.1594 527.498 95.1394 528.218 96.4194C528.938 97.6794 529.298 99.1694 529.298 100.889ZM523.298 99.4194C523.298 98.6994 523.058 98.1394 522.578 97.7394C522.098 97.3194 521.498 97.1094 520.778 97.1094C520.058 97.1094 519.468 97.3094 519.008 97.7094C518.548 98.0894 518.248 98.6594 518.108 99.4194H523.298ZM553.694 92.5194C555.814 92.5194 557.474 93.1594 558.674 94.4394C559.894 95.7194 560.504 97.4694 560.504 99.6894V109.499H554.624V100.469C554.624 99.5694 554.374 98.8694 553.874 98.3694C553.374 97.8694 552.694 97.6194 551.834 97.6194C550.974 97.6194 550.294 97.8694 549.794 98.3694C549.294 98.8694 549.044 99.5694 549.044 100.469V109.499H543.164V100.469C543.164 99.5694 542.914 98.8694 542.414 98.3694C541.934 97.8694 541.264 97.6194 540.404 97.6194C539.524 97.6194 538.834 97.8694 538.334 98.3694C537.834 98.8694 537.584 99.5694 537.584 100.469V109.499H531.704V92.6694H537.584V94.8894C538.104 94.1694 538.774 93.5994 539.594 93.1794C540.434 92.7394 541.394 92.5194 542.474 92.5194C543.714 92.5194 544.814 92.7894 545.774 93.3294C546.754 93.8694 547.524 94.6294 548.084 95.6094C548.684 94.6894 549.474 93.9494 550.454 93.3894C551.434 92.8094 552.514 92.5194 553.694 92.5194ZM570.896 109.709C569.376 109.709 568.016 109.459 566.816 108.959C565.636 108.439 564.696 107.739 563.996 106.859C563.316 105.959 562.936 104.949 562.856 103.829H568.556C568.636 104.369 568.886 104.789 569.306 105.089C569.726 105.389 570.246 105.539 570.866 105.539C571.346 105.539 571.726 105.439 572.006 105.239C572.286 105.039 572.426 104.779 572.426 104.459C572.426 104.039 572.196 103.729 571.736 103.529C571.276 103.329 570.516 103.109 569.456 102.869C568.256 102.629 567.256 102.359 566.456 102.059C565.656 101.759 564.956 101.269 564.356 100.589C563.776 99.9094 563.486 98.9894 563.486 97.8294C563.486 96.8294 563.756 95.9294 564.296 95.1294C564.836 94.3094 565.626 93.6594 566.666 93.1794C567.726 92.6994 568.996 92.4594 570.476 92.4594C572.676 92.4594 574.406 92.9994 575.666 94.0794C576.926 95.1594 577.656 96.5794 577.856 98.3394H572.546C572.446 97.7994 572.206 97.3894 571.826 97.1094C571.466 96.8094 570.976 96.6594 570.356 96.6594C569.876 96.6594 569.506 96.7494 569.246 96.9294C569.006 97.1094 568.886 97.3594 568.886 97.6794C568.886 98.0794 569.116 98.3894 569.576 98.6094C570.036 98.8094 570.776 99.0194 571.796 99.2394C573.016 99.4994 574.026 99.7894 574.826 100.109C575.646 100.429 576.356 100.949 576.956 101.669C577.576 102.369 577.886 103.329 577.886 104.549C577.886 105.529 577.596 106.409 577.016 107.189C576.456 107.969 575.646 108.589 574.586 109.049C573.546 109.489 572.316 109.709 570.896 109.709ZM427.459 133.349V154.499H421.579V142.829L417.589 154.499H412.669L408.649 142.739V154.499H402.769V133.349H409.879L415.189 147.089L420.379 133.349H427.459ZM446.886 145.889C446.886 146.349 446.856 146.809 446.796 147.269H435.666C435.726 148.189 435.976 148.879 436.416 149.339C436.876 149.779 437.456 149.999 438.156 149.999C439.136 149.999 439.836 149.559 440.256 148.679H446.526C446.266 149.839 445.756 150.879 444.996 151.799C444.256 152.699 443.316 153.409 442.176 153.929C441.036 154.449 439.776 154.709 438.396 154.709C436.736 154.709 435.256 154.359 433.956 153.659C432.676 152.959 431.666 151.959 430.926 150.659C430.206 149.359 429.846 147.829 429.846 146.069C429.846 144.309 430.206 142.789 430.926 141.509C431.646 140.209 432.646 139.209 433.926 138.509C435.226 137.809 436.716 137.459 438.396 137.459C440.056 137.459 441.526 137.799 442.806 138.479C444.086 139.159 445.086 140.139 445.806 141.419C446.526 142.679 446.886 144.169 446.886 145.889ZM440.886 144.419C440.886 143.699 440.646 143.139 440.166 142.739C439.686 142.319 439.086 142.109 438.366 142.109C437.646 142.109 437.056 142.309 436.596 142.709C436.136 143.089 435.836 143.659 435.696 144.419H440.886ZM465.372 145.889C465.372 146.349 465.342 146.809 465.282 147.269H454.152C454.212 148.189 454.462 148.879 454.902 149.339C455.362 149.779 455.942 149.999 456.642 149.999C457.622 149.999 458.322 149.559 458.742 148.679H465.012C464.752 149.839 464.242 150.879 463.482 151.799C462.742 152.699 461.802 153.409 460.662 153.929C459.522 154.449 458.262 154.709 456.882 154.709C455.222 154.709 453.742 154.359 452.442 153.659C451.162 152.959 450.152 151.959 449.412 150.659C448.692 149.359 448.332 147.829 448.332 146.069C448.332 144.309 448.692 142.789 449.412 141.509C450.132 140.209 451.132 139.209 452.412 138.509C453.712 137.809 455.202 137.459 456.882 137.459C458.542 137.459 460.012 137.799 461.292 138.479C462.572 139.159 463.572 140.139 464.292 141.419C465.012 142.679 465.372 144.169 465.372 145.889ZM459.372 144.419C459.372 143.699 459.132 143.139 458.652 142.739C458.172 142.319 457.572 142.109 456.852 142.109C456.132 142.109 455.542 142.309 455.082 142.709C454.622 143.089 454.322 143.659 454.182 144.419H459.372ZM477.709 149.489V154.499H475.159C470.859 154.499 468.709 152.369 468.709 148.109V142.559H466.639V137.669H468.709V133.589H474.619V137.669H477.679V142.559H474.619V148.199C474.619 148.659 474.719 148.989 474.919 149.189C475.139 149.389 475.499 149.489 475.999 149.489H477.709ZM483.376 136.109C482.336 136.109 481.496 135.829 480.856 135.269C480.236 134.689 479.926 133.969 479.926 133.109C479.926 132.229 480.236 131.499 480.856 130.919C481.496 130.339 482.336 130.049 483.376 130.049C484.396 130.049 485.216 130.339 485.836 130.919C486.476 131.499 486.796 132.229 486.796 133.109C486.796 133.969 486.476 134.689 485.836 135.269C485.216 135.829 484.396 136.109 483.376 136.109ZM486.286 137.669V154.499H480.406V137.669H486.286ZM500.644 137.519C502.584 137.519 504.124 138.169 505.264 139.469C506.404 140.749 506.974 142.489 506.974 144.689V154.499H501.094V145.469C501.094 144.509 500.844 143.759 500.344 143.219C499.844 142.659 499.174 142.379 498.334 142.379C497.454 142.379 496.764 142.659 496.264 143.219C495.764 143.759 495.514 144.509 495.514 145.469V154.499H489.634V137.669H495.514V140.069C496.034 139.309 496.734 138.699 497.614 138.239C498.494 137.759 499.504 137.519 500.644 137.519ZM516.411 137.459C517.551 137.459 518.541 137.689 519.381 138.149C520.241 138.609 520.901 139.229 521.361 140.009V137.669H527.241V154.319C527.241 155.899 526.941 157.319 526.341 158.579C525.741 159.859 524.801 160.879 523.521 161.639C522.261 162.399 520.661 162.779 518.721 162.779C516.121 162.779 514.041 162.169 512.481 160.949C510.921 159.729 510.031 158.069 509.811 155.969H515.601C515.721 156.509 516.021 156.929 516.501 157.229C516.981 157.529 517.601 157.679 518.361 157.679C520.361 157.679 521.361 156.559 521.361 154.319V152.159C520.901 152.939 520.241 153.559 519.381 154.019C518.541 154.479 517.551 154.709 516.411 154.709C515.071 154.709 513.851 154.359 512.751 153.659C511.671 152.959 510.811 151.959 510.171 150.659C509.551 149.339 509.241 147.809 509.241 146.069C509.241 144.329 509.551 142.809 510.171 141.509C510.811 140.209 511.671 139.209 512.751 138.509C513.851 137.809 515.071 137.459 516.411 137.459ZM521.361 146.069C521.361 144.989 521.061 144.139 520.461 143.519C519.881 142.899 519.161 142.589 518.301 142.589C517.421 142.589 516.691 142.899 516.111 143.519C515.531 144.119 515.241 144.969 515.241 146.069C515.241 147.149 515.531 148.009 516.111 148.649C516.691 149.269 517.421 149.579 518.301 149.579C519.161 149.579 519.881 149.269 520.461 148.649C521.061 148.029 521.361 147.169 521.361 146.069Z" fill="#333333"/>
<line x1="644.5" y1="242.999" x2="644.5" y2="-0.000610334" stroke="#999999" stroke-dasharray="2 2"/>
<path d="M738.208 98.8794C738.208 96.7994 738.638 94.9494 739.498 93.3294C740.378 91.6894 741.618 90.4194 743.218 89.5194C744.818 88.5994 746.658 88.1394 748.738 88.1394C751.378 88.1394 753.598 88.8494 755.398 90.2694C757.198 91.6694 758.358 93.5794 758.878 95.9994H752.548C752.168 95.1994 751.638 94.5894 750.958 94.1694C750.298 93.7494 749.528 93.5394 748.648 93.5394C747.288 93.5394 746.198 94.0294 745.378 95.0094C744.578 95.9694 744.178 97.2594 744.178 98.8794C744.178 100.519 744.578 101.829 745.378 102.809C746.198 103.769 747.288 104.249 748.648 104.249C749.528 104.249 750.298 104.039 750.958 103.619C751.638 103.199 752.168 102.589 752.548 101.789H758.878C758.358 104.209 757.198 106.129 755.398 107.549C753.598 108.949 751.378 109.649 748.738 109.649C746.658 109.649 744.818 109.199 743.218 108.299C741.618 107.379 740.378 106.109 739.498 104.489C738.638 102.849 738.208 100.979 738.208 98.8794ZM769.492 109.709C767.812 109.709 766.302 109.359 764.962 108.659C763.642 107.959 762.602 106.959 761.842 105.659C761.082 104.359 760.702 102.829 760.702 101.069C760.702 99.3294 761.082 97.8094 761.842 96.5094C762.622 95.2094 763.672 94.2094 764.992 93.5094C766.332 92.8094 767.842 92.4594 769.522 92.4594C771.202 92.4594 772.702 92.8094 774.022 93.5094C775.362 94.2094 776.412 95.2094 777.172 96.5094C777.952 97.8094 778.342 99.3294 778.342 101.069C778.342 102.809 777.952 104.339 777.172 105.659C776.412 106.959 775.362 107.959 774.022 108.659C772.682 109.359 771.172 109.709 769.492 109.709ZM769.492 104.609C770.312 104.609 770.992 104.309 771.532 103.709C772.092 103.089 772.372 102.209 772.372 101.069C772.372 99.9294 772.092 99.0594 771.532 98.4594C770.992 97.8594 770.322 97.5594 769.522 97.5594C768.722 97.5594 768.052 97.8594 767.512 98.4594C766.972 99.0594 766.702 99.9294 766.702 101.069C766.702 102.229 766.962 103.109 767.482 103.709C768.002 104.309 768.672 104.609 769.492 104.609ZM791.745 92.5194C793.685 92.5194 795.225 93.1694 796.365 94.4694C797.505 95.7494 798.075 97.4894 798.075 99.6894V109.499H792.195V100.469C792.195 99.5094 791.945 98.7594 791.445 98.2194C790.945 97.6594 790.275 97.3794 789.435 97.3794C788.555 97.3794 787.865 97.6594 787.365 98.2194C786.865 98.7594 786.615 99.5094 786.615 100.469V109.499H780.735V92.6694H786.615V95.0694C787.135 94.3094 787.835 93.6994 788.715 93.2394C789.595 92.7594 790.605 92.5194 791.745 92.5194ZM808.471 109.709C806.951 109.709 805.591 109.459 804.391 108.959C803.211 108.439 802.271 107.739 801.571 106.859C800.891 105.959 800.511 104.949 800.431 103.829H806.131C806.211 104.369 806.461 104.789 806.881 105.089C807.301 105.389 807.821 105.539 808.441 105.539C808.921 105.539 809.301 105.439 809.581 105.239C809.861 105.039 810.001 104.779 810.001 104.459C810.001 104.039 809.771 103.729 809.311 103.529C808.851 103.329 808.091 103.109 807.031 102.869C805.831 102.629 804.831 102.359 804.031 102.059C803.231 101.759 802.531 101.269 801.931 100.589C801.351 99.9094 801.061 98.9894 801.061 97.8294C801.061 96.8294 801.331 95.9294 801.871 95.1294C802.411 94.3094 803.201 93.6594 804.241 93.1794C805.301 92.6994 806.571 92.4594 808.051 92.4594C810.251 92.4594 811.981 92.9994 813.241 94.0794C814.501 95.1594 815.231 96.5794 815.431 98.3394H810.121C810.021 97.7994 809.781 97.3894 809.401 97.1094C809.041 96.8094 808.551 96.6594 807.931 96.6594C807.451 96.6594 807.081 96.7494 806.821 96.9294C806.581 97.1094 806.461 97.3594 806.461 97.6794C806.461 98.0794 806.691 98.3894 807.151 98.6094C807.611 98.8094 808.351 99.0194 809.371 99.2394C810.591 99.4994 811.601 99.7894 812.401 100.109C813.221 100.429 813.931 100.949 814.531 101.669C815.151 102.369 815.461 103.329 815.461 104.549C815.461 105.529 815.171 106.409 814.591 107.189C814.031 107.969 813.221 108.589 812.161 109.049C811.121 109.489 809.891 109.709 808.471 109.709ZM835.572 92.6694V109.499H829.662V107.099C829.162 107.859 828.472 108.479 827.592 108.959C826.712 109.419 825.702 109.649 824.562 109.649C822.602 109.649 821.052 109.009 819.912 107.729C818.792 106.429 818.232 104.669 818.232 102.449V92.6694H824.082V101.699C824.082 102.659 824.332 103.419 824.832 103.979C825.352 104.519 826.032 104.789 826.872 104.789C827.732 104.789 828.412 104.519 828.912 103.979C829.412 103.419 829.662 102.659 829.662 101.699V92.6694H835.572ZM844.798 87.2994V109.499H838.918V87.2994H844.798ZM858.077 104.489V109.499H855.527C851.227 109.499 849.077 107.369 849.077 103.109V97.5594H847.007V92.6694H849.077V88.5894H854.987V92.6694H858.047V97.5594H854.987V103.199C854.987 103.659 855.087 103.989 855.287 104.189C855.507 104.389 855.867 104.489 856.367 104.489H858.077ZM878.894 92.6694L868.214 117.509H861.824L865.844 108.779L858.944 92.6694H865.484L869.024 102.209L872.444 92.6694H878.894ZM746.126 138.059V141.509H752.876V145.979H746.126V149.789H753.776V154.499H740.246V133.349H753.776V138.059H746.126ZM763.852 154.709C762.332 154.709 760.972 154.459 759.772 153.959C758.592 153.439 757.652 152.739 756.952 151.859C756.272 150.959 755.892 149.949 755.812 148.829H761.512C761.592 149.369 761.842 149.789 762.262 150.089C762.682 150.389 763.202 150.539 763.822 150.539C764.302 150.539 764.682 150.439 764.962 150.239C765.242 150.039 765.382 149.779 765.382 149.459C765.382 149.039 765.152 148.729 764.692 148.529C764.232 148.329 763.472 148.109 762.412 147.869C761.212 147.629 760.212 147.359 759.412 147.059C758.612 146.759 757.912 146.269 757.312 145.589C756.732 144.909 756.442 143.989 756.442 142.829C756.442 141.829 756.712 140.929 757.252 140.129C757.792 139.309 758.582 138.659 759.622 138.179C760.682 137.699 761.952 137.459 763.432 137.459C765.632 137.459 767.362 137.999 768.622 139.079C769.882 140.159 770.612 141.579 770.812 143.339H765.502C765.402 142.799 765.162 142.389 764.782 142.109C764.422 141.809 763.932 141.659 763.312 141.659C762.832 141.659 762.462 141.749 762.202 141.929C761.962 142.109 761.842 142.359 761.842 142.679C761.842 143.079 762.072 143.389 762.532 143.609C762.992 143.809 763.732 144.019 764.752 144.239C765.972 144.499 766.982 144.789 767.782 145.109C768.602 145.429 769.312 145.949 769.912 146.669C770.532 147.369 770.842 148.329 770.842 149.549C770.842 150.529 770.552 151.409 769.972 152.189C769.412 152.969 768.602 153.589 767.542 154.049C766.502 154.489 765.272 154.709 763.852 154.709ZM783.663 149.489V154.499H781.113C776.813 154.499 774.663 152.369 774.663 148.109V142.559H772.593V137.669H774.663V133.589H780.573V137.669H783.633V142.559H780.573V148.199C780.573 148.659 780.673 148.989 780.873 149.189C781.093 149.389 781.453 149.489 781.953 149.489H783.663ZM789.33 136.109C788.29 136.109 787.45 135.829 786.81 135.269C786.19 134.689 785.88 133.969 785.88 133.109C785.88 132.229 786.19 131.499 786.81 130.919C787.45 130.339 788.29 130.049 789.33 130.049C790.35 130.049 791.17 130.339 791.79 130.919C792.43 131.499 792.75 132.229 792.75 133.109C792.75 133.969 792.43 134.689 791.79 135.269C791.17 135.829 790.35 136.109 789.33 136.109ZM792.24 137.669V154.499H786.36V137.669H792.24ZM817.578 137.519C819.698 137.519 821.358 138.159 822.558 139.439C823.778 140.719 824.388 142.469 824.388 144.689V154.499H818.508V145.469C818.508 144.569 818.258 143.869 817.758 143.369C817.258 142.869 816.578 142.619 815.718 142.619C814.858 142.619 814.178 142.869 813.678 143.369C813.178 143.869 812.928 144.569 812.928 145.469V154.499H807.048V145.469C807.048 144.569 806.798 143.869 806.298 143.369C805.818 142.869 805.148 142.619 804.288 142.619C803.408 142.619 802.718 142.869 802.218 143.369C801.718 143.869 801.468 144.569 801.468 145.469V154.499H795.588V137.669H801.468V139.889C801.988 139.169 802.658 138.599 803.478 138.179C804.318 137.739 805.278 137.519 806.358 137.519C807.598 137.519 808.698 137.789 809.658 138.329C810.638 138.869 811.408 139.629 811.968 140.609C812.568 139.689 813.358 138.949 814.338 138.389C815.318 137.809 816.398 137.519 817.578 137.519ZM826.65 146.069C826.65 144.329 826.96 142.809 827.58 141.509C828.22 140.209 829.08 139.209 830.16 138.509C831.26 137.809 832.48 137.459 833.82 137.459C834.98 137.459 835.98 137.689 836.82 138.149C837.66 138.609 838.31 139.229 838.77 140.009V137.669H844.65V154.499H838.77V152.159C838.31 152.939 837.65 153.559 836.79 154.019C835.95 154.479 834.96 154.709 833.82 154.709C832.48 154.709 831.26 154.359 830.16 153.659C829.08 152.959 828.22 151.959 827.58 150.659C826.96 149.339 826.65 147.809 826.65 146.069ZM838.77 146.069C838.77 144.989 838.47 144.139 837.87 143.519C837.29 142.899 836.57 142.589 835.71 142.589C834.83 142.589 834.1 142.899 833.52 143.519C832.94 144.119 832.65 144.969 832.65 146.069C832.65 147.149 832.94 148.009 833.52 148.649C834.1 149.269 834.83 149.579 835.71 149.579C836.57 149.579 837.29 149.269 837.87 148.649C838.47 148.029 838.77 147.169 838.77 146.069ZM857.93 149.489V154.499H855.38C851.08 154.499 848.93 152.369 848.93 148.109V142.559H846.86V137.669H848.93V133.589H854.84V137.669H857.9V142.559H854.84V148.199C854.84 148.659 854.94 148.989 855.14 149.189C855.36 149.389 855.72 149.489 856.22 149.489H857.93ZM876.707 145.889C876.707 146.349 876.677 146.809 876.617 147.269H865.487C865.547 148.189 865.797 148.879 866.237 149.339C866.697 149.779 867.277 149.999 867.977 149.999C868.957 149.999 869.657 149.559 870.077 148.679H876.347C876.087 149.839 875.577 150.879 874.817 151.799C874.077 152.699 873.137 153.409 871.997 153.929C870.857 154.449 869.597 154.709 868.217 154.709C866.557 154.709 865.077 154.359 863.777 153.659C862.497 152.959 861.487 151.959 860.747 150.659C860.027 149.359 859.667 147.829 859.667 146.069C859.667 144.309 860.027 142.789 860.747 141.509C861.467 140.209 862.467 139.209 863.747 138.509C865.047 137.809 866.537 137.459 868.217 137.459C869.877 137.459 871.347 137.799 872.627 138.479C873.907 139.159 874.907 140.139 875.627 141.419C876.347 142.679 876.707 144.169 876.707 145.889ZM870.707 144.419C870.707 143.699 870.467 143.139 869.987 142.739C869.507 142.319 868.907 142.109 868.187 142.109C867.467 142.109 866.877 142.309 866.417 142.709C865.957 143.089 865.657 143.659 865.517 144.419H870.707Z" fill="#333333"/>
<line x1="970.5" y1="242.999" x2="970.5" y2="-0.000610334" stroke="#999999" stroke-dasharray="2 2"/>
<path d="M1048.72 88.3494C1050.94 88.3494 1052.88 88.7994 1054.54 89.6994C1056.22 90.5794 1057.51 91.8194 1058.41 93.4194C1059.31 95.0194 1059.76 96.8494 1059.76 98.9094C1059.76 100.949 1059.3 102.769 1058.38 104.369C1057.48 105.969 1056.19 107.229 1054.51 108.149C1052.85 109.049 1050.92 109.499 1048.72 109.499H1040.35V88.3494H1048.72ZM1048.27 104.309C1049.99 104.309 1051.34 103.839 1052.32 102.899C1053.3 101.959 1053.79 100.629 1053.79 98.9094C1053.79 97.1694 1053.3 95.8294 1052.32 94.8894C1051.34 93.9294 1049.99 93.4494 1048.27 93.4494H1046.23V104.309H1048.27ZM1078.5 100.889C1078.5 101.349 1078.47 101.809 1078.41 102.269H1067.28C1067.34 103.189 1067.59 103.879 1068.03 104.339C1068.49 104.779 1069.07 104.999 1069.77 104.999C1070.75 104.999 1071.45 104.559 1071.87 103.679H1078.14C1077.88 104.839 1077.37 105.879 1076.61 106.799C1075.87 107.699 1074.93 108.409 1073.79 108.929C1072.65 109.449 1071.39 109.709 1070.01 109.709C1068.35 109.709 1066.87 109.359 1065.57 108.659C1064.29 107.959 1063.28 106.959 1062.54 105.659C1061.82 104.359 1061.46 102.829 1061.46 101.069C1061.46 99.3094 1061.82 97.7894 1062.54 96.5094C1063.26 95.2094 1064.26 94.2094 1065.54 93.5094C1066.84 92.8094 1068.33 92.4594 1070.01 92.4594C1071.67 92.4594 1073.14 92.7994 1074.42 93.4794C1075.7 94.1594 1076.7 95.1394 1077.42 96.4194C1078.14 97.6794 1078.5 99.1694 1078.5 100.889ZM1072.5 99.4194C1072.5 98.6994 1072.26 98.1394 1071.78 97.7394C1071.3 97.3194 1070.7 97.1094 1069.98 97.1094C1069.26 97.1094 1068.67 97.3094 1068.21 97.7094C1067.75 98.0894 1067.45 98.6594 1067.31 99.4194H1072.5ZM1088.97 103.949L1092.12 92.6694H1098.39L1092.6 109.499H1085.28L1079.49 92.6694H1085.76L1088.97 103.949ZM1116.46 100.889C1116.46 101.349 1116.43 101.809 1116.37 102.269H1105.24C1105.3 103.189 1105.55 103.879 1105.99 104.339C1106.45 104.779 1107.03 104.999 1107.73 104.999C1108.71 104.999 1109.41 104.559 1109.83 103.679H1116.1C1115.84 104.839 1115.33 105.879 1114.57 106.799C1113.83 107.699 1112.89 108.409 1111.75 108.929C1110.61 109.449 1109.35 109.709 1107.97 109.709C1106.31 109.709 1104.83 109.359 1103.53 108.659C1102.25 107.959 1101.24 106.959 1100.5 105.659C1099.78 104.359 1099.42 102.829 1099.42 101.069C1099.42 99.3094 1099.78 97.7894 1100.5 96.5094C1101.22 95.2094 1102.22 94.2094 1103.5 93.5094C1104.8 92.8094 1106.29 92.4594 1107.97 92.4594C1109.63 92.4594 1111.1 92.7994 1112.38 93.4794C1113.66 94.1594 1114.66 95.1394 1115.38 96.4194C1116.1 97.6794 1116.46 99.1694 1116.46 100.889ZM1110.46 99.4194C1110.46 98.6994 1110.22 98.1394 1109.74 97.7394C1109.26 97.3194 1108.66 97.1094 1107.94 97.1094C1107.22 97.1094 1106.63 97.3094 1106.17 97.7094C1105.71 98.0894 1105.41 98.6594 1105.27 99.4194H1110.46ZM1124.75 87.2994V109.499H1118.87V87.2994H1124.75ZM1135.93 109.709C1134.25 109.709 1132.74 109.359 1131.4 108.659C1130.08 107.959 1129.04 106.959 1128.28 105.659C1127.52 104.359 1127.14 102.829 1127.14 101.069C1127.14 99.3294 1127.52 97.8094 1128.28 96.5094C1129.06 95.2094 1130.11 94.2094 1131.43 93.5094C1132.77 92.8094 1134.28 92.4594 1135.96 92.4594C1137.64 92.4594 1139.14 92.8094 1140.46 93.5094C1141.8 94.2094 1142.85 95.2094 1143.61 96.5094C1144.39 97.8094 1144.78 99.3294 1144.78 101.069C1144.78 102.809 1144.39 104.339 1143.61 105.659C1142.85 106.959 1141.8 107.959 1140.46 108.659C1139.12 109.359 1137.61 109.709 1135.93 109.709ZM1135.93 104.609C1136.75 104.609 1137.43 104.309 1137.97 103.709C1138.53 103.089 1138.81 102.209 1138.81 101.069C1138.81 99.9294 1138.53 99.0594 1137.97 98.4594C1137.43 97.8594 1136.76 97.5594 1135.96 97.5594C1135.16 97.5594 1134.49 97.8594 1133.95 98.4594C1133.41 99.0594 1133.14 99.9294 1133.14 101.069C1133.14 102.229 1133.4 103.109 1133.92 103.709C1134.44 104.309 1135.11 104.609 1135.93 104.609ZM1153.05 95.0094C1153.51 94.2294 1154.16 93.6094 1155 93.1494C1155.84 92.6894 1156.83 92.4594 1157.97 92.4594C1159.31 92.4594 1160.52 92.8094 1161.6 93.5094C1162.7 94.2094 1163.56 95.2094 1164.18 96.5094C1164.82 97.8094 1165.14 99.3294 1165.14 101.069C1165.14 102.809 1164.82 104.339 1164.18 105.659C1163.56 106.959 1162.7 107.959 1161.6 108.659C1160.52 109.359 1159.31 109.709 1157.97 109.709C1156.83 109.709 1155.84 109.479 1155 109.019C1154.18 108.559 1153.53 107.939 1153.05 107.159V117.539H1147.17V92.6694H1153.05V95.0094ZM1159.17 101.069C1159.17 99.9694 1158.87 99.1194 1158.27 98.5194C1157.69 97.8994 1156.97 97.5894 1156.11 97.5894C1155.25 97.5894 1154.52 97.8994 1153.92 98.5194C1153.34 99.1394 1153.05 99.9894 1153.05 101.069C1153.05 102.169 1153.34 103.029 1153.92 103.649C1154.52 104.269 1155.25 104.579 1156.11 104.579C1156.97 104.579 1157.69 104.269 1158.27 103.649C1158.87 103.009 1159.17 102.149 1159.17 101.069ZM1189.55 92.5194C1191.67 92.5194 1193.33 93.1594 1194.53 94.4394C1195.75 95.7194 1196.36 97.4694 1196.36 99.6894V109.499H1190.48V100.469C1190.48 99.5694 1190.23 98.8694 1189.73 98.3694C1189.23 97.8694 1188.55 97.6194 1187.69 97.6194C1186.83 97.6194 1186.15 97.8694 1185.65 98.3694C1185.15 98.8694 1184.9 99.5694 1184.9 100.469V109.499H1179.02V100.469C1179.02 99.5694 1178.77 98.8694 1178.27 98.3694C1177.79 97.8694 1177.12 97.6194 1176.26 97.6194C1175.38 97.6194 1174.69 97.8694 1174.19 98.3694C1173.69 98.8694 1173.44 99.5694 1173.44 100.469V109.499H1167.56V92.6694H1173.44V94.8894C1173.96 94.1694 1174.63 93.5994 1175.45 93.1794C1176.29 92.7394 1177.25 92.5194 1178.33 92.5194C1179.57 92.5194 1180.67 92.7894 1181.63 93.3294C1182.61 93.8694 1183.38 94.6294 1183.94 95.6094C1184.54 94.6894 1185.33 93.9494 1186.31 93.3894C1187.29 92.8094 1188.37 92.5194 1189.55 92.5194ZM1215.66 100.889C1215.66 101.349 1215.63 101.809 1215.57 102.269H1204.44C1204.5 103.189 1204.75 103.879 1205.19 104.339C1205.65 104.779 1206.23 104.999 1206.93 104.999C1207.91 104.999 1208.61 104.559 1209.03 103.679H1215.3C1215.04 104.839 1214.53 105.879 1213.77 106.799C1213.03 107.699 1212.09 108.409 1210.95 108.929C1209.81 109.449 1208.55 109.709 1207.17 109.709C1205.51 109.709 1204.03 109.359 1202.73 108.659C1201.45 107.959 1200.44 106.959 1199.7 105.659C1198.98 104.359 1198.62 102.829 1198.62 101.069C1198.62 99.3094 1198.98 97.7894 1199.7 96.5094C1200.42 95.2094 1201.42 94.2094 1202.7 93.5094C1204 92.8094 1205.49 92.4594 1207.17 92.4594C1208.83 92.4594 1210.3 92.7994 1211.58 93.4794C1212.86 94.1594 1213.86 95.1394 1214.58 96.4194C1215.3 97.6794 1215.66 99.1694 1215.66 100.889ZM1209.66 99.4194C1209.66 98.6994 1209.42 98.1394 1208.94 97.7394C1208.46 97.3194 1207.86 97.1094 1207.14 97.1094C1206.42 97.1094 1205.83 97.3094 1205.37 97.7094C1204.91 98.0894 1204.61 98.6594 1204.47 99.4194H1209.66ZM1229.08 92.5194C1231.02 92.5194 1232.56 93.1694 1233.7 94.4694C1234.84 95.7494 1235.41 97.4894 1235.41 99.6894V109.499H1229.53V100.469C1229.53 99.5094 1229.28 98.7594 1228.78 98.2194C1228.28 97.6594 1227.61 97.3794 1226.77 97.3794C1225.89 97.3794 1225.2 97.6594 1224.7 98.2194C1224.2 98.7594 1223.95 99.5094 1223.95 100.469V109.499H1218.07V92.6694H1223.95V95.0694C1224.47 94.3094 1225.17 93.6994 1226.05 93.2394C1226.93 92.7594 1227.94 92.5194 1229.08 92.5194ZM1248.57 104.489V109.499H1246.02C1241.72 109.499 1239.57 107.369 1239.57 103.109V97.5594H1237.5V92.6694H1239.57V88.5894H1245.48V92.6694H1248.54V97.5594H1245.48V103.199C1245.48 103.659 1245.58 103.989 1245.78 104.189C1246 104.389 1246.36 104.489 1246.86 104.489H1248.57ZM1056.45 149.489V154.499H1053.9C1049.6 154.499 1047.45 152.369 1047.45 148.109V142.559H1045.38V137.669H1047.45V133.589H1053.36V137.669H1056.42V142.559H1053.36V148.199C1053.36 148.659 1053.46 148.989 1053.66 149.189C1053.88 149.389 1054.24 149.489 1054.74 149.489H1056.45ZM1075.23 145.889C1075.23 146.349 1075.2 146.809 1075.14 147.269H1064.01C1064.07 148.189 1064.32 148.879 1064.76 149.339C1065.22 149.779 1065.8 149.999 1066.5 149.999C1067.48 149.999 1068.18 149.559 1068.6 148.679H1074.87C1074.61 149.839 1074.1 150.879 1073.34 151.799C1072.6 152.699 1071.66 153.409 1070.52 153.929C1069.38 154.449 1068.12 154.709 1066.74 154.709C1065.08 154.709 1063.6 154.359 1062.3 153.659C1061.02 152.959 1060.01 151.959 1059.27 150.659C1058.55 149.359 1058.19 147.829 1058.19 146.069C1058.19 144.309 1058.55 142.789 1059.27 141.509C1059.99 140.209 1060.99 139.209 1062.27 138.509C1063.57 137.809 1065.06 137.459 1066.74 137.459C1068.4 137.459 1069.87 137.799 1071.15 138.479C1072.43 139.159 1073.43 140.139 1074.15 141.419C1074.87 142.679 1075.23 144.169 1075.23 145.889ZM1069.23 144.419C1069.23 143.699 1068.99 143.139 1068.51 142.739C1068.03 142.319 1067.43 142.109 1066.71 142.109C1065.99 142.109 1065.4 142.309 1064.94 142.709C1064.48 143.089 1064.18 143.659 1064.04 144.419H1069.23ZM1076.68 146.069C1076.68 144.329 1076.99 142.809 1077.61 141.509C1078.25 140.209 1079.11 139.209 1080.19 138.509C1081.29 137.809 1082.51 137.459 1083.85 137.459C1085.01 137.459 1086.01 137.689 1086.85 138.149C1087.69 138.609 1088.34 139.229 1088.8 140.009V137.669H1094.68V154.499H1088.8V152.159C1088.34 152.939 1087.68 153.559 1086.82 154.019C1085.98 154.479 1084.99 154.709 1083.85 154.709C1082.51 154.709 1081.29 154.359 1080.19 153.659C1079.11 152.959 1078.25 151.959 1077.61 150.659C1076.99 149.339 1076.68 147.809 1076.68 146.069ZM1088.8 146.069C1088.8 144.989 1088.5 144.139 1087.9 143.519C1087.32 142.899 1086.6 142.589 1085.74 142.589C1084.86 142.589 1084.13 142.899 1083.55 143.519C1082.97 144.119 1082.68 144.969 1082.68 146.069C1082.68 147.149 1082.97 148.009 1083.55 148.649C1084.13 149.269 1084.86 149.579 1085.74 149.579C1086.6 149.579 1087.32 149.269 1087.9 148.649C1088.5 148.029 1088.8 147.169 1088.8 146.069ZM1120.02 137.519C1122.14 137.519 1123.8 138.159 1125 139.439C1126.22 140.719 1126.83 142.469 1126.83 144.689V154.499H1120.95V145.469C1120.95 144.569 1120.7 143.869 1120.2 143.369C1119.7 142.869 1119.02 142.619 1118.16 142.619C1117.3 142.619 1116.62 142.869 1116.12 143.369C1115.62 143.869 1115.37 144.569 1115.37 145.469V154.499H1109.49V145.469C1109.49 144.569 1109.24 143.869 1108.74 143.369C1108.26 142.869 1107.59 142.619 1106.73 142.619C1105.85 142.619 1105.16 142.869 1104.66 143.369C1104.16 143.869 1103.91 144.569 1103.91 145.469V154.499H1098.03V137.669H1103.91V139.889C1104.43 139.169 1105.1 138.599 1105.92 138.179C1106.76 137.739 1107.72 137.519 1108.8 137.519C1110.04 137.519 1111.14 137.789 1112.1 138.329C1113.08 138.869 1113.85 139.629 1114.41 140.609C1115.01 139.689 1115.8 138.949 1116.78 138.389C1117.76 137.809 1118.84 137.519 1120.02 137.519ZM1141.67 149.999H1148.24V154.499H1135.79V133.349H1141.67V149.999ZM1149.57 146.069C1149.57 144.329 1149.88 142.809 1150.5 141.509C1151.14 140.209 1152 139.209 1153.08 138.509C1154.18 137.809 1155.4 137.459 1156.74 137.459C1157.9 137.459 1158.9 137.689 1159.74 138.149C1160.58 138.609 1161.23 139.229 1161.69 140.009V137.669H1167.57V154.499H1161.69V152.159C1161.23 152.939 1160.57 153.559 1159.71 154.019C1158.87 154.479 1157.88 154.709 1156.74 154.709C1155.4 154.709 1154.18 154.359 1153.08 153.659C1152 152.959 1151.14 151.959 1150.5 150.659C1149.88 149.339 1149.57 147.809 1149.57 146.069ZM1161.69 146.069C1161.69 144.989 1161.39 144.139 1160.79 143.519C1160.21 142.899 1159.49 142.589 1158.63 142.589C1157.75 142.589 1157.02 142.899 1156.44 143.519C1155.86 144.119 1155.57 144.969 1155.57 146.069C1155.57 147.149 1155.86 148.009 1156.44 148.649C1157.02 149.269 1157.75 149.579 1158.63 149.579C1159.49 149.579 1160.21 149.269 1160.79 148.649C1161.39 148.029 1161.69 147.169 1161.69 146.069ZM1188.14 137.669V154.499H1182.23V152.099C1181.73 152.859 1181.04 153.479 1180.16 153.959C1179.28 154.419 1178.27 154.649 1177.13 154.649C1175.17 154.649 1173.62 154.009 1172.48 152.729C1171.36 151.429 1170.8 149.669 1170.8 147.449V137.669H1176.65V146.699C1176.65 147.659 1176.9 148.419 1177.4 148.979C1177.92 149.519 1178.6 149.789 1179.44 149.789C1180.3 149.789 1180.98 149.519 1181.48 148.979C1181.98 148.419 1182.23 147.659 1182.23 146.699V137.669H1188.14ZM1202.49 137.519C1204.43 137.519 1205.97 138.169 1207.11 139.469C1208.25 140.749 1208.82 142.489 1208.82 144.689V154.499H1202.94V145.469C1202.94 144.509 1202.69 143.759 1202.19 143.219C1201.69 142.659 1201.02 142.379 1200.18 142.379C1199.3 142.379 1198.61 142.659 1198.11 143.219C1197.61 143.759 1197.36 144.509 1197.36 145.469V154.499H1191.48V137.669H1197.36V140.069C1197.88 139.309 1198.58 138.699 1199.46 138.239C1200.34 137.759 1201.35 137.519 1202.49 137.519ZM1211.09 146.069C1211.09 144.329 1211.45 142.809 1212.17 141.509C1212.89 140.209 1213.89 139.209 1215.17 138.509C1216.47 137.809 1217.95 137.459 1219.61 137.459C1221.75 137.459 1223.55 138.049 1225.01 139.229C1226.47 140.389 1227.41 142.019 1227.83 144.119H1221.59C1221.23 143.019 1220.53 142.469 1219.49 142.469C1218.75 142.469 1218.16 142.779 1217.72 143.399C1217.3 143.999 1217.09 144.889 1217.09 146.069C1217.09 147.249 1217.3 148.149 1217.72 148.769C1218.16 149.389 1218.75 149.699 1219.49 149.699C1220.55 149.699 1221.25 149.149 1221.59 148.049H1227.83C1227.41 150.129 1226.47 151.759 1225.01 152.939C1223.55 154.119 1221.75 154.709 1219.61 154.709C1217.95 154.709 1216.47 154.359 1215.17 153.659C1213.89 152.959 1212.89 151.959 1212.17 150.659C1211.45 149.359 1211.09 147.829 1211.09 146.069ZM1241.34 137.519C1243.26 137.519 1244.78 138.169 1245.9 139.469C1247.04 140.749 1247.61 142.489 1247.61 144.689V154.499H1241.73V145.469C1241.73 144.509 1241.48 143.759 1240.98 143.219C1240.48 142.659 1239.81 142.379 1238.97 142.379C1238.09 142.379 1237.4 142.659 1236.9 143.219C1236.4 143.759 1236.15 144.509 1236.15 145.469V154.499H1230.27V132.299H1236.15V140.069C1236.67 139.309 1237.37 138.699 1238.25 138.239C1239.15 137.759 1240.18 137.519 1241.34 137.519Z" fill="#333333"/>
<line x1="1322.5" y1="242.999" x2="1322.5" y2="-0.000610334" stroke="#999999" stroke-dasharray="2 2"/>
<path d="M1398.52 132.209C1396.06 132.209 1394.04 131.629 1392.46 130.469C1390.88 129.289 1390.03 127.609 1389.91 125.429H1396.18C1396.24 126.169 1396.46 126.709 1396.84 127.049C1397.22 127.389 1397.71 127.559 1398.31 127.559C1398.85 127.559 1399.29 127.429 1399.63 127.169C1399.99 126.889 1400.17 126.509 1400.17 126.029C1400.17 125.409 1399.88 124.929 1399.3 124.589C1398.72 124.249 1397.78 123.869 1396.48 123.449C1395.1 122.989 1393.98 122.549 1393.12 122.129C1392.28 121.689 1391.54 121.059 1390.9 120.239C1390.28 119.399 1389.97 118.309 1389.97 116.969C1389.97 115.609 1390.31 114.449 1390.99 113.489C1391.67 112.509 1392.61 111.769 1393.81 111.269C1395.01 110.769 1396.37 110.519 1397.89 110.519C1400.35 110.519 1402.31 111.099 1403.77 112.259C1405.25 113.399 1406.04 115.009 1406.14 117.089H1399.75C1399.73 116.449 1399.53 115.969 1399.15 115.649C1398.79 115.329 1398.32 115.169 1397.74 115.169C1397.3 115.169 1396.94 115.299 1396.66 115.559C1396.38 115.819 1396.24 116.189 1396.24 116.669C1396.24 117.069 1396.39 117.419 1396.69 117.719C1397.01 117.999 1397.4 118.249 1397.86 118.469C1398.32 118.669 1399 118.929 1399.9 119.249C1401.24 119.709 1402.34 120.169 1403.2 120.629C1404.08 121.069 1404.83 121.699 1405.45 122.519C1406.09 123.319 1406.41 124.339 1406.41 125.579C1406.41 126.839 1406.09 127.969 1405.45 128.969C1404.83 129.969 1403.92 130.759 1402.72 131.339C1401.54 131.919 1400.14 132.209 1398.52 132.209ZM1412.11 113.609C1411.07 113.609 1410.23 113.329 1409.59 112.769C1408.97 112.189 1408.66 111.469 1408.66 110.609C1408.66 109.729 1408.97 108.999 1409.59 108.419C1410.23 107.839 1411.07 107.549 1412.11 107.549C1413.13 107.549 1413.95 107.839 1414.57 108.419C1415.21 108.999 1415.53 109.729 1415.53 110.609C1415.53 111.469 1415.21 112.189 1414.57 112.769C1413.95 113.329 1413.13 113.609 1412.11 113.609ZM1415.02 115.169V131.999H1409.14V115.169H1415.02ZM1424.58 114.959C1425.72 114.959 1426.71 115.189 1427.55 115.649C1428.41 116.109 1429.07 116.729 1429.53 117.509V115.169H1435.41V131.819C1435.41 133.399 1435.11 134.819 1434.51 136.079C1433.91 137.359 1432.97 138.379 1431.69 139.139C1430.43 139.899 1428.83 140.279 1426.89 140.279C1424.29 140.279 1422.21 139.669 1420.65 138.449C1419.09 137.229 1418.2 135.569 1417.98 133.469H1423.77C1423.89 134.009 1424.19 134.429 1424.67 134.729C1425.15 135.029 1425.77 135.179 1426.53 135.179C1428.53 135.179 1429.53 134.059 1429.53 131.819V129.659C1429.07 130.439 1428.41 131.059 1427.55 131.519C1426.71 131.979 1425.72 132.209 1424.58 132.209C1423.24 132.209 1422.02 131.859 1420.92 131.159C1419.84 130.459 1418.98 129.459 1418.34 128.159C1417.72 126.839 1417.41 125.309 1417.41 123.569C1417.41 121.829 1417.72 120.309 1418.34 119.009C1418.98 117.709 1419.84 116.709 1420.92 116.009C1422.02 115.309 1423.24 114.959 1424.58 114.959ZM1429.53 123.569C1429.53 122.489 1429.23 121.639 1428.63 121.019C1428.05 120.399 1427.33 120.089 1426.47 120.089C1425.59 120.089 1424.86 120.399 1424.28 121.019C1423.7 121.619 1423.41 122.469 1423.41 123.569C1423.41 124.649 1423.7 125.509 1424.28 126.149C1424.86 126.769 1425.59 127.079 1426.47 127.079C1427.33 127.079 1428.05 126.769 1428.63 126.149C1429.23 125.529 1429.53 124.669 1429.53 123.569ZM1449.77 115.019C1451.71 115.019 1453.25 115.669 1454.39 116.969C1455.53 118.249 1456.1 119.989 1456.1 122.189V131.999H1450.22V122.969C1450.22 122.009 1449.97 121.259 1449.47 120.719C1448.97 120.159 1448.3 119.879 1447.46 119.879C1446.58 119.879 1445.89 120.159 1445.39 120.719C1444.89 121.259 1444.64 122.009 1444.64 122.969V131.999H1438.76V115.169H1444.64V117.569C1445.16 116.809 1445.86 116.199 1446.74 115.739C1447.62 115.259 1448.63 115.019 1449.77 115.019ZM1458.37 123.569C1458.37 121.829 1458.68 120.309 1459.3 119.009C1459.94 117.709 1460.8 116.709 1461.88 116.009C1462.98 115.309 1464.2 114.959 1465.54 114.959C1466.7 114.959 1467.7 115.189 1468.54 115.649C1469.38 116.109 1470.03 116.729 1470.49 117.509V115.169H1476.37V131.999H1470.49V129.659C1470.03 130.439 1469.37 131.059 1468.51 131.519C1467.67 131.979 1466.68 132.209 1465.54 132.209C1464.2 132.209 1462.98 131.859 1461.88 131.159C1460.8 130.459 1459.94 129.459 1459.3 128.159C1458.68 126.839 1458.37 125.309 1458.37 123.569ZM1470.49 123.569C1470.49 122.489 1470.19 121.639 1469.59 121.019C1469.01 120.399 1468.29 120.089 1467.43 120.089C1466.55 120.089 1465.82 120.399 1465.24 121.019C1464.66 121.619 1464.37 122.469 1464.37 123.569C1464.37 124.649 1464.66 125.509 1465.24 126.149C1465.82 126.769 1466.55 127.079 1467.43 127.079C1468.29 127.079 1469.01 126.769 1469.59 126.149C1470.19 125.529 1470.49 124.669 1470.49 123.569ZM1489.65 126.989V131.999H1487.1C1482.8 131.999 1480.65 129.869 1480.65 125.609V120.059H1478.58V115.169H1480.65V111.089H1486.56V115.169H1489.62V120.059H1486.56V125.699C1486.56 126.159 1486.66 126.489 1486.86 126.689C1487.08 126.889 1487.44 126.989 1487.94 126.989H1489.65ZM1509.57 115.169V131.999H1503.66V129.599C1503.16 130.359 1502.47 130.979 1501.59 131.459C1500.71 131.919 1499.7 132.149 1498.56 132.149C1496.6 132.149 1495.05 131.509 1493.91 130.229C1492.79 128.929 1492.23 127.169 1492.23 124.949V115.169H1498.08V124.199C1498.08 125.159 1498.33 125.919 1498.83 126.479C1499.35 127.019 1500.03 127.289 1500.87 127.289C1501.73 127.289 1502.41 127.019 1502.91 126.479C1503.41 125.919 1503.66 125.159 1503.66 124.199V115.169H1509.57ZM1518.79 118.139C1519.45 117.179 1520.25 116.419 1521.19 115.859C1522.13 115.299 1523.14 115.019 1524.22 115.019V121.289H1522.57C1521.29 121.289 1520.34 121.539 1519.72 122.039C1519.1 122.539 1518.79 123.409 1518.79 124.649V131.999H1512.91V115.169H1518.79V118.139ZM1542.41 123.389C1542.41 123.849 1542.38 124.309 1542.32 124.769H1531.19C1531.25 125.689 1531.5 126.379 1531.94 126.839C1532.4 127.279 1532.98 127.499 1533.68 127.499C1534.66 127.499 1535.36 127.059 1535.78 126.179H1542.05C1541.79 127.339 1541.28 128.379 1540.52 129.299C1539.78 130.199 1538.84 130.909 1537.7 131.429C1536.56 131.949 1535.3 132.209 1533.92 132.209C1532.26 132.209 1530.78 131.859 1529.48 131.159C1528.2 130.459 1527.19 129.459 1526.45 128.159C1525.73 126.859 1525.37 125.329 1525.37 123.569C1525.37 121.809 1525.73 120.289 1526.45 119.009C1527.17 117.709 1528.17 116.709 1529.45 116.009C1530.75 115.309 1532.24 114.959 1533.92 114.959C1535.58 114.959 1537.05 115.299 1538.33 115.979C1539.61 116.659 1540.61 117.639 1541.33 118.919C1542.05 120.179 1542.41 121.669 1542.41 123.389ZM1536.41 121.919C1536.41 121.199 1536.17 120.639 1535.69 120.239C1535.21 119.819 1534.61 119.609 1533.89 119.609C1533.17 119.609 1532.58 119.809 1532.12 120.209C1531.66 120.589 1531.36 121.159 1531.22 121.919H1536.41Z" fill="#333333"/>
<line x1="1608.5" y1="242.999" x2="1608.5" y2="-0.000610334" stroke="#999999" stroke-dasharray="2 2"/>
<path d="M1663.6 88.3494C1665.82 88.3494 1667.76 88.7994 1669.42 89.6994C1671.1 90.5794 1672.39 91.8194 1673.29 93.4194C1674.19 95.0194 1674.64 96.8494 1674.64 98.9094C1674.64 100.949 1674.18 102.769 1673.26 104.369C1672.36 105.969 1671.07 107.229 1669.39 108.149C1667.73 109.049 1665.8 109.499 1663.6 109.499H1655.23V88.3494H1663.6ZM1663.15 104.309C1664.87 104.309 1666.22 103.839 1667.2 102.899C1668.18 101.959 1668.67 100.629 1668.67 98.9094C1668.67 97.1694 1668.18 95.8294 1667.2 94.8894C1666.22 93.9294 1664.87 93.4494 1663.15 93.4494H1661.11V104.309H1663.15ZM1693.37 100.889C1693.37 101.349 1693.34 101.809 1693.28 102.269H1682.15C1682.21 103.189 1682.46 103.879 1682.9 104.339C1683.36 104.779 1683.94 104.999 1684.64 104.999C1685.62 104.999 1686.32 104.559 1686.74 103.679H1693.01C1692.75 104.839 1692.24 105.879 1691.48 106.799C1690.74 107.699 1689.8 108.409 1688.66 108.929C1687.52 109.449 1686.26 109.709 1684.88 109.709C1683.22 109.709 1681.74 109.359 1680.44 108.659C1679.16 107.959 1678.15 106.959 1677.41 105.659C1676.69 104.359 1676.33 102.829 1676.33 101.069C1676.33 99.3094 1676.69 97.7894 1677.41 96.5094C1678.13 95.2094 1679.13 94.2094 1680.41 93.5094C1681.71 92.8094 1683.2 92.4594 1684.88 92.4594C1686.54 92.4594 1688.01 92.7994 1689.29 93.4794C1690.57 94.1594 1691.57 95.1394 1692.29 96.4194C1693.01 97.6794 1693.37 99.1694 1693.37 100.889ZM1687.37 99.4194C1687.37 98.6994 1687.13 98.1394 1686.65 97.7394C1686.17 97.3194 1685.57 97.1094 1684.85 97.1094C1684.13 97.1094 1683.54 97.3094 1683.08 97.7094C1682.62 98.0894 1682.32 98.6594 1682.18 99.4194H1687.37ZM1703.84 103.949L1706.99 92.6694H1713.26L1707.47 109.499H1700.15L1694.36 92.6694H1700.63L1703.84 103.949ZM1731.34 100.889C1731.34 101.349 1731.31 101.809 1731.25 102.269H1720.12C1720.18 103.189 1720.43 103.879 1720.87 104.339C1721.33 104.779 1721.91 104.999 1722.61 104.999C1723.59 104.999 1724.29 104.559 1724.71 103.679H1730.98C1730.72 104.839 1730.21 105.879 1729.45 106.799C1728.71 107.699 1727.77 108.409 1726.63 108.929C1725.49 109.449 1724.23 109.709 1722.85 109.709C1721.19 109.709 1719.71 109.359 1718.41 108.659C1717.13 107.959 1716.12 106.959 1715.38 105.659C1714.66 104.359 1714.3 102.829 1714.3 101.069C1714.3 99.3094 1714.66 97.7894 1715.38 96.5094C1716.1 95.2094 1717.1 94.2094 1718.38 93.5094C1719.68 92.8094 1721.17 92.4594 1722.85 92.4594C1724.51 92.4594 1725.98 92.7994 1727.26 93.4794C1728.54 94.1594 1729.54 95.1394 1730.26 96.4194C1730.98 97.6794 1731.34 99.1694 1731.34 100.889ZM1725.34 99.4194C1725.34 98.6994 1725.1 98.1394 1724.62 97.7394C1724.14 97.3194 1723.54 97.1094 1722.82 97.1094C1722.1 97.1094 1721.51 97.3094 1721.05 97.7094C1720.59 98.0894 1720.29 98.6594 1720.15 99.4194H1725.34ZM1739.62 87.2994V109.499H1733.74V87.2994H1739.62ZM1750.8 109.709C1749.12 109.709 1747.61 109.359 1746.27 108.659C1744.95 107.959 1743.91 106.959 1743.15 105.659C1742.39 104.359 1742.01 102.829 1742.01 101.069C1742.01 99.3294 1742.39 97.8094 1743.15 96.5094C1743.93 95.2094 1744.98 94.2094 1746.3 93.5094C1747.64 92.8094 1749.15 92.4594 1750.83 92.4594C1752.51 92.4594 1754.01 92.8094 1755.33 93.5094C1756.67 94.2094 1757.72 95.2094 1758.48 96.5094C1759.26 97.8094 1759.65 99.3294 1759.65 101.069C1759.65 102.809 1759.26 104.339 1758.48 105.659C1757.72 106.959 1756.67 107.959 1755.33 108.659C1753.99 109.359 1752.48 109.709 1750.8 109.709ZM1750.8 104.609C1751.62 104.609 1752.3 104.309 1752.84 103.709C1753.4 103.089 1753.68 102.209 1753.68 101.069C1753.68 99.9294 1753.4 99.0594 1752.84 98.4594C1752.3 97.8594 1751.63 97.5594 1750.83 97.5594C1750.03 97.5594 1749.36 97.8594 1748.82 98.4594C1748.28 99.0594 1748.01 99.9294 1748.01 101.069C1748.01 102.229 1748.27 103.109 1748.79 103.709C1749.31 104.309 1749.98 104.609 1750.8 104.609ZM1767.92 95.0094C1768.38 94.2294 1769.03 93.6094 1769.87 93.1494C1770.71 92.6894 1771.7 92.4594 1772.84 92.4594C1774.18 92.4594 1775.39 92.8094 1776.47 93.5094C1777.57 94.2094 1778.43 95.2094 1779.05 96.5094C1779.69 97.8094 1780.01 99.3294 1780.01 101.069C1780.01 102.809 1779.69 104.339 1779.05 105.659C1778.43 106.959 1777.57 107.959 1776.47 108.659C1775.39 109.359 1774.18 109.709 1772.84 109.709C1771.7 109.709 1770.71 109.479 1769.87 109.019C1769.05 108.559 1768.4 107.939 1767.92 107.159V117.539H1762.04V92.6694H1767.92V95.0094ZM1774.04 101.069C1774.04 99.9694 1773.74 99.1194 1773.14 98.5194C1772.56 97.8994 1771.84 97.5894 1770.98 97.5894C1770.12 97.5894 1769.39 97.8994 1768.79 98.5194C1768.21 99.1394 1767.92 99.9894 1767.92 101.069C1767.92 102.169 1768.21 103.029 1768.79 103.649C1769.39 104.269 1770.12 104.579 1770.98 104.579C1771.84 104.579 1772.56 104.269 1773.14 103.649C1773.74 103.009 1774.04 102.149 1774.04 101.069ZM1804.42 92.5194C1806.54 92.5194 1808.2 93.1594 1809.4 94.4394C1810.62 95.7194 1811.23 97.4694 1811.23 99.6894V109.499H1805.35V100.469C1805.35 99.5694 1805.1 98.8694 1804.6 98.3694C1804.1 97.8694 1803.42 97.6194 1802.56 97.6194C1801.7 97.6194 1801.02 97.8694 1800.52 98.3694C1800.02 98.8694 1799.77 99.5694 1799.77 100.469V109.499H1793.89V100.469C1793.89 99.5694 1793.64 98.8694 1793.14 98.3694C1792.66 97.8694 1791.99 97.6194 1791.13 97.6194C1790.25 97.6194 1789.56 97.8694 1789.06 98.3694C1788.56 98.8694 1788.31 99.5694 1788.31 100.469V109.499H1782.43V92.6694H1788.31V94.8894C1788.83 94.1694 1789.5 93.5994 1790.32 93.1794C1791.16 92.7394 1792.12 92.5194 1793.2 92.5194C1794.44 92.5194 1795.54 92.7894 1796.5 93.3294C1797.48 93.8694 1798.25 94.6294 1798.81 95.6094C1799.41 94.6894 1800.2 93.9494 1801.18 93.3894C1802.16 92.8094 1803.24 92.5194 1804.42 92.5194ZM1830.53 100.889C1830.53 101.349 1830.5 101.809 1830.44 102.269H1819.31C1819.37 103.189 1819.62 103.879 1820.06 104.339C1820.52 104.779 1821.1 104.999 1821.8 104.999C1822.78 104.999 1823.48 104.559 1823.9 103.679H1830.17C1829.91 104.839 1829.4 105.879 1828.64 106.799C1827.9 107.699 1826.96 108.409 1825.82 108.929C1824.68 109.449 1823.42 109.709 1822.04 109.709C1820.38 109.709 1818.9 109.359 1817.6 108.659C1816.32 107.959 1815.31 106.959 1814.57 105.659C1813.85 104.359 1813.49 102.829 1813.49 101.069C1813.49 99.3094 1813.85 97.7894 1814.57 96.5094C1815.29 95.2094 1816.29 94.2094 1817.57 93.5094C1818.87 92.8094 1820.36 92.4594 1822.04 92.4594C1823.7 92.4594 1825.17 92.7994 1826.45 93.4794C1827.73 94.1594 1828.73 95.1394 1829.45 96.4194C1830.17 97.6794 1830.53 99.1694 1830.53 100.889ZM1824.53 99.4194C1824.53 98.6994 1824.29 98.1394 1823.81 97.7394C1823.33 97.3194 1822.73 97.1094 1822.01 97.1094C1821.29 97.1094 1820.7 97.3094 1820.24 97.7094C1819.78 98.0894 1819.48 98.6594 1819.34 99.4194H1824.53ZM1843.95 92.5194C1845.89 92.5194 1847.43 93.1694 1848.57 94.4694C1849.71 95.7494 1850.28 97.4894 1850.28 99.6894V109.499H1844.4V100.469C1844.4 99.5094 1844.15 98.7594 1843.65 98.2194C1843.15 97.6594 1842.48 97.3794 1841.64 97.3794C1840.76 97.3794 1840.07 97.6594 1839.57 98.2194C1839.07 98.7594 1838.82 99.5094 1838.82 100.469V109.499H1832.94V92.6694H1838.82V95.0694C1839.34 94.3094 1840.04 93.6994 1840.92 93.2394C1841.8 92.7594 1842.81 92.5194 1843.95 92.5194ZM1863.44 104.489V109.499H1860.89C1856.59 109.499 1854.44 107.369 1854.44 103.109V97.5594H1852.37V92.6694H1854.44V88.5894H1860.35V92.6694H1863.41V97.5594H1860.35V103.199C1860.35 103.659 1860.45 103.989 1860.65 104.189C1860.87 104.389 1861.23 104.489 1861.73 104.489H1863.44ZM1686.1 141.659V146.549H1672.51V141.659H1686.1ZM1700.6 154.709C1698.62 154.709 1696.8 154.249 1695.14 153.329C1693.48 152.389 1692.16 151.099 1691.18 149.459C1690.22 147.799 1689.74 145.929 1689.74 143.849C1689.74 141.769 1690.22 139.909 1691.18 138.269C1692.16 136.609 1693.48 135.319 1695.14 134.399C1696.8 133.479 1698.62 133.019 1700.6 133.019C1702.6 133.019 1704.42 133.479 1706.06 134.399C1707.72 135.319 1709.03 136.609 1709.99 138.269C1710.95 139.909 1711.43 141.769 1711.43 143.849C1711.43 145.929 1710.95 147.799 1709.99 149.459C1709.03 151.099 1707.72 152.389 1706.06 153.329C1704.4 154.249 1702.58 154.709 1700.6 154.709ZM1700.6 149.249C1702.1 149.249 1703.28 148.759 1704.14 147.779C1705.02 146.799 1705.46 145.489 1705.46 143.849C1705.46 142.169 1705.02 140.849 1704.14 139.889C1703.28 138.909 1702.1 138.419 1700.6 138.419C1699.08 138.419 1697.89 138.909 1697.03 139.889C1696.17 140.849 1695.74 142.169 1695.74 143.849C1695.74 145.509 1696.17 146.829 1697.03 147.809C1697.89 148.769 1699.08 149.249 1700.6 149.249ZM1719.95 140.009C1720.41 139.229 1721.06 138.609 1721.9 138.149C1722.74 137.689 1723.73 137.459 1724.87 137.459C1726.21 137.459 1727.42 137.809 1728.5 138.509C1729.6 139.209 1730.46 140.209 1731.08 141.509C1731.72 142.809 1732.04 144.329 1732.04 146.069C1732.04 147.809 1731.72 149.339 1731.08 150.659C1730.46 151.959 1729.6 152.959 1728.5 153.659C1727.42 154.359 1726.21 154.709 1724.87 154.709C1723.73 154.709 1722.74 154.479 1721.9 154.019C1721.08 153.559 1720.43 152.939 1719.95 152.159V162.539H1714.07V137.669H1719.95V140.009ZM1726.07 146.069C1726.07 144.969 1725.77 144.119 1725.17 143.519C1724.59 142.899 1723.87 142.589 1723.01 142.589C1722.15 142.589 1721.42 142.899 1720.82 143.519C1720.24 144.139 1719.95 144.989 1719.95 146.069C1719.95 147.169 1720.24 148.029 1720.82 148.649C1721.42 149.269 1722.15 149.579 1723.01 149.579C1723.87 149.579 1724.59 149.269 1725.17 148.649C1725.77 148.009 1726.07 147.149 1726.07 146.069ZM1750.54 145.889C1750.54 146.349 1750.51 146.809 1750.45 147.269H1739.32C1739.38 148.189 1739.63 148.879 1740.07 149.339C1740.53 149.779 1741.11 149.999 1741.81 149.999C1742.79 149.999 1743.49 149.559 1743.91 148.679H1750.18C1749.92 149.839 1749.41 150.879 1748.65 151.799C1747.91 152.699 1746.97 153.409 1745.83 153.929C1744.69 154.449 1743.43 154.709 1742.05 154.709C1740.39 154.709 1738.91 154.359 1737.61 153.659C1736.33 152.959 1735.32 151.959 1734.58 150.659C1733.86 149.359 1733.5 147.829 1733.5 146.069C1733.5 144.309 1733.86 142.789 1734.58 141.509C1735.3 140.209 1736.3 139.209 1737.58 138.509C1738.88 137.809 1740.37 137.459 1742.05 137.459C1743.71 137.459 1745.18 137.799 1746.46 138.479C1747.74 139.159 1748.74 140.139 1749.46 141.419C1750.18 142.679 1750.54 144.169 1750.54 145.889ZM1744.54 144.419C1744.54 143.699 1744.3 143.139 1743.82 142.739C1743.34 142.319 1742.74 142.109 1742.02 142.109C1741.3 142.109 1740.71 142.309 1740.25 142.709C1739.79 143.089 1739.49 143.659 1739.35 144.419H1744.54ZM1758.83 140.639C1759.49 139.679 1760.29 138.919 1761.23 138.359C1762.17 137.799 1763.18 137.519 1764.26 137.519V143.789H1762.61C1761.33 143.789 1760.38 144.039 1759.76 144.539C1759.14 145.039 1758.83 145.909 1758.83 147.149V154.499H1752.95V137.669H1758.83V140.639ZM1765.4 146.069C1765.4 144.329 1765.71 142.809 1766.33 141.509C1766.97 140.209 1767.83 139.209 1768.91 138.509C1770.01 137.809 1771.23 137.459 1772.57 137.459C1773.73 137.459 1774.73 137.689 1775.57 138.149C1776.41 138.609 1777.06 139.229 1777.52 140.009V137.669H1783.4V154.499H1777.52V152.159C1777.06 152.939 1776.4 153.559 1775.54 154.019C1774.7 154.479 1773.71 154.709 1772.57 154.709C1771.23 154.709 1770.01 154.359 1768.91 153.659C1767.83 152.959 1766.97 151.959 1766.33 150.659C1765.71 149.339 1765.4 147.809 1765.4 146.069ZM1777.52 146.069C1777.52 144.989 1777.22 144.139 1776.62 143.519C1776.04 142.899 1775.32 142.589 1774.46 142.589C1773.58 142.589 1772.85 142.899 1772.27 143.519C1771.69 144.119 1771.4 144.969 1771.4 146.069C1771.4 147.149 1771.69 148.009 1772.27 148.649C1772.85 149.269 1773.58 149.579 1774.46 149.579C1775.32 149.579 1776.04 149.269 1776.62 148.649C1777.22 148.029 1777.52 147.169 1777.52 146.069ZM1796.68 149.489V154.499H1794.13C1789.83 154.499 1787.68 152.369 1787.68 148.109V142.559H1785.61V137.669H1787.68V133.589H1793.59V137.669H1796.65V142.559H1793.59V148.199C1793.59 148.659 1793.69 148.989 1793.89 149.189C1794.11 149.389 1794.47 149.489 1794.97 149.489H1796.68ZM1802.35 136.109C1801.31 136.109 1800.47 135.829 1799.83 135.269C1799.21 134.689 1798.9 133.969 1798.9 133.109C1798.9 132.229 1799.21 131.499 1799.83 130.919C1800.47 130.339 1801.31 130.049 1802.35 130.049C1803.37 130.049 1804.19 130.339 1804.81 130.919C1805.45 131.499 1805.77 132.229 1805.77 133.109C1805.77 133.969 1805.45 134.689 1804.81 135.269C1804.19 135.829 1803.37 136.109 1802.35 136.109ZM1805.26 137.669V154.499H1799.38V137.669H1805.26ZM1816.44 154.709C1814.76 154.709 1813.25 154.359 1811.91 153.659C1810.59 152.959 1809.55 151.959 1808.79 150.659C1808.03 149.359 1807.65 147.829 1807.65 146.069C1807.65 144.329 1808.03 142.809 1808.79 141.509C1809.57 140.209 1810.62 139.209 1811.94 138.509C1813.28 137.809 1814.79 137.459 1816.47 137.459C1818.15 137.459 1819.65 137.809 1820.97 138.509C1822.31 139.209 1823.36 140.209 1824.12 141.509C1824.9 142.809 1825.29 144.329 1825.29 146.069C1825.29 147.809 1824.9 149.339 1824.12 150.659C1823.36 151.959 1822.31 152.959 1820.97 153.659C1819.63 154.359 1818.12 154.709 1816.44 154.709ZM1816.44 149.609C1817.26 149.609 1817.94 149.309 1818.48 148.709C1819.04 148.089 1819.32 147.209 1819.32 146.069C1819.32 144.929 1819.04 144.059 1818.48 143.459C1817.94 142.859 1817.27 142.559 1816.47 142.559C1815.67 142.559 1815 142.859 1814.46 143.459C1813.92 144.059 1813.65 144.929 1813.65 146.069C1813.65 147.229 1813.91 148.109 1814.43 148.709C1814.95 149.309 1815.62 149.609 1816.44 149.609ZM1838.69 137.519C1840.63 137.519 1842.17 138.169 1843.31 139.469C1844.45 140.749 1845.02 142.489 1845.02 144.689V154.499H1839.14V145.469C1839.14 144.509 1838.89 143.759 1838.39 143.219C1837.89 142.659 1837.22 142.379 1836.38 142.379C1835.5 142.379 1834.81 142.659 1834.31 143.219C1833.81 143.759 1833.56 144.509 1833.56 145.469V154.499H1827.68V137.669H1833.56V140.069C1834.08 139.309 1834.78 138.699 1835.66 138.239C1836.54 137.759 1837.55 137.519 1838.69 137.519Z" fill="#333333"/>
<path fill-rule="evenodd" clip-rule="evenodd" d="M305.178 141.229L319 116.114L305.178 90.9994V104.114H285V129.114H305.178V141.229Z" fill="#F16A23"/>
<path fill-rule="evenodd" clip-rule="evenodd" d="M664.178 141.229L678 116.114L664.178 90.9994V104.114H644V129.114H664.178V141.229Z" fill="#F16A23"/>
<path fill-rule="evenodd" clip-rule="evenodd" d="M991.178 141.229L1005 116.114L991.178 90.9994V104.114H971V129.114H991.178V141.229Z" fill="#F16A23"/>
<path fill-rule="evenodd" clip-rule="evenodd" d="M1342.18 141.229L1356 116.114L1342.18 90.9994V104.114H1322V129.114H1342.18V141.229Z" fill="#F16A23"/>
<path fill-rule="evenodd" clip-rule="evenodd" d="M1629.18 141.229L1643 116.114L1629.18 90.9994V104.114H1609V129.114H1629.18V141.229Z" fill="#F16A23"/>
<line y1="243.499" x2="1920" y2="243.499" stroke="#999999" stroke-dasharray="2 2"/>
<line y1="1.49939" x2="1920" y2="1.49939" stroke="#999999" stroke-dasharray="2 2"/>
</svg>
