<svg width="186" height="135" viewBox="0 0 186 135" fill="none" xmlns="http://www.w3.org/2000/svg">
<path d="M62.1517 56.9983L62.4838 57.665L64.2178 61.1462L64.2179 61.1464C66.8736 66.4846 72.2082 69.7944 78.1459 69.7944C81.5729 69.7944 84.6523 71.7092 86.1814 74.7807L86.1816 74.7811L87.4559 77.3464L62.1517 56.9983ZM62.1517 56.9983L61.6604 57.5582M62.1517 56.9983L61.6604 57.5582M61.6604 57.5582C57.5574 62.2344 54.4659 67.8094 52.7223 73.9687L52.5422 74.6049H53.2034H58.2311C64.7693 74.6049 70.4427 79.0539 72.0271 85.4281L72.0271 85.4282L72.2957 86.5074L72.2958 86.5075C72.9334 89.0653 74.801 91.0892 77.2885 91.9233L77.2886 91.9234C81.9295 93.4783 85.4027 97.2462 86.588 102.012L86.5881 102.012L86.8566 103.089C87.7084 106.509 90.7528 108.899 94.2666 108.899H95.4467C99.8976 108.899 104.154 111.035 106.822 114.615L106.823 114.615L112.832 122.664L113.092 123.012L113.473 122.803C117.86 120.4 121.748 117.214 125.017 113.477L125.442 112.991L124.865 112.701L123.637 112.083L123.412 112.53L123.637 112.083C116.947 108.719 112.792 101.969 112.792 94.456C112.792 90.4069 113.933 86.6241 116.086 83.3771C119.73 77.8844 125.833 74.6049 132.407 74.6049H133.437H134.097L133.918 73.9688C133.156 71.2761 132.138 68.7003 130.892 66.2567L130.753 65.9839H130.447H122.983C118.35 65.9839 114.332 69.2926 113.421 73.8543L113.42 73.8549M61.6604 57.5582L113.42 73.8549M113.42 73.8549C112.133 80.3369 106.418 85.0363 99.8446 85.0363C94.563 85.0363 89.8193 82.0914 87.4562 77.3468L113.42 73.8549ZM51.7806 81.2258H51.3235L51.2826 81.6811C51.1689 82.9473 51.088 84.2285 51.088 85.5363C51.088 108.921 70.0333 127.952 93.3218 127.952C97.8144 127.952 102.138 127.23 106.204 125.916L106.869 125.701L106.451 125.141L101.557 118.583C101.557 118.583 101.557 118.583 101.557 118.583C100.123 116.661 97.8426 115.516 95.4504 115.516H94.2703C87.7283 115.516 82.055 111.067 80.4706 104.697L80.4706 104.697L80.202 103.618L80.202 103.618C79.5643 101.06 77.6967 99.0359 75.2096 98.2L75.209 98.1998C70.5682 96.6467 67.095 92.8789 65.9097 88.1135L65.9097 88.1134L65.6411 87.0342L65.6411 87.0341C64.7893 83.6163 61.7449 81.2258 58.2311 81.2258H51.7806ZM128.938 107.344L129.355 107.554L129.593 107.153C133.354 100.811 135.556 93.4378 135.556 85.5363C135.556 84.2287 135.475 82.9477 135.365 81.6825L135.325 81.2258H134.867H132.412C128.043 81.2258 123.987 83.4051 121.569 87.0538C120.137 89.2137 119.38 91.7211 119.38 94.3108C119.38 99.4398 122.14 103.924 126.583 106.159L128.938 107.344ZM125.491 59.3629H126.551L125.877 58.545C118.123 49.1344 106.409 43.121 93.3218 43.121C83.5898 43.121 74.6481 46.4775 67.4996 52.0476L67.177 52.299L67.3593 52.665L70.1103 58.1871C71.6394 61.2586 74.7189 63.1734 78.1459 63.1734C84.0835 63.1734 89.4182 66.4832 92.0739 71.8195L93.3483 74.385L93.3487 74.3858C94.5869 76.867 97.077 78.4153 99.8446 78.4153C103.297 78.4153 106.289 75.9475 106.965 72.5523C108.49 64.9088 115.229 59.3629 122.986 59.3629H125.491ZM142.144 85.5363C142.144 112.576 120.239 134.573 93.3218 134.573C66.4048 134.573 44.5 112.576 44.5 85.5363C44.5 58.497 66.4048 36.5 93.3218 36.5C120.239 36.5 142.144 58.497 142.144 85.5363Z" fill="#C9C9C9" stroke="white"/>
<path d="M89.7913 14.587V13.3762L88.937 14.2342L84.3858 18.8052L79.7265 14.1256L93.0853 0.708646L106.444 14.1256L101.785 18.8052L97.2336 14.2342L96.3793 13.3762V14.587V27.7512H89.7913V14.587Z" fill="#C9C9C9" stroke="white"/>
<path d="M14.5231 98.8254L1.1643 85.4084L14.5231 71.9915L19.1825 76.6711L14.6283 81.2452L13.7792 82.0979H14.9826H35.6755V88.7189H14.9826H13.7792L14.6283 89.5717L19.1825 94.1457L14.5231 98.8254Z" fill="#C9C9C9" stroke="white"/>
<path d="M171.648 71.9915L185.006 85.4084L171.648 98.8254L166.988 94.1457L171.542 89.5717L172.391 88.7189H171.188H150.495V82.0979H171.188H172.391L171.542 81.2452L166.988 76.6711L171.648 71.9915Z" fill="#C9C9C9" stroke="white"/>
<path d="M140.836 31.5616H135.319V24.9407H153.289V42.9931H146.701V37.4499V36.2391L145.847 37.0971L137.502 45.4786L132.842 40.799L141.191 32.4144L142.04 31.5616H140.836Z" fill="#C9C9C9" stroke="white"/>
<path d="M40.3238 37.0971L39.4695 36.2391V37.4499V42.9931H32.8815V24.9407H50.8515V31.5616H45.3345H44.131L44.9801 32.4144L53.3284 40.799L48.669 45.4786L40.3238 37.0971Z" fill="#C9C9C9" stroke="white"/>
</svg>
